<?xml version="1.0" standalone="no"?>
<svg width="567.429" height="301.404" viewBox="0 0 567.429 301.404" xmlns="http://www.w3.org/2000/svg" shape-rendering="crispEdges">
<title>
/home/rooitier/Documents/masters/plots/levels/ti/4_cumullvls_ti.svg
</title>
<desc>
Creator: ROOT Version 6.26/02
CreationDate: Wed Apr 20 00:23:44 2022</desc>
<defs>
</defs>
<rect x="0.5" y="0" width="566.929" height="300.904" fill="white"/>
<rect x="57.1929" y="30.0904" width="453.543" height="240.723" fill="white"/>
<rect x="57.1929" y="30.0904" width="453.543" height="240.723" fill="none" stroke="black"/>
<rect x="57.1929" y="30.0904" width="453.543" height="240.723" fill="white"/>
<rect x="57.1929" y="30.0904" width="453.543" height="240.723" fill="none" stroke="black"/>
<path d="M57.1929,270.814h 453.543" fill="none" stroke="black"/>
<path d="M96.5572,263.592v 7.2217" fill="none" stroke="black"/>
<path d="M106.843,267.203v 3.61085" fill="none" stroke="black"/>
<path d="M117.13,267.203v 3.61085" fill="none" stroke="black"/>
<path d="M127.416,267.203v 3.61085" fill="none" stroke="black"/>
<path d="M137.702,267.203v 3.61085" fill="none" stroke="black"/>
<path d="M147.988,263.592v 7.2217" fill="none" stroke="black"/>
<path d="M158.274,267.203v 3.61085" fill="none" stroke="black"/>
<path d="M168.561,267.203v 3.61085" fill="none" stroke="black"/>
<path d="M178.847,267.203v 3.61085" fill="none" stroke="black"/>
<path d="M189.133,267.203v 3.61085" fill="none" stroke="black"/>
<path d="M199.419,263.592v 7.2217" fill="none" stroke="black"/>
<path d="M209.705,267.203v 3.61085" fill="none" stroke="black"/>
<path d="M219.991,267.203v 3.61085" fill="none" stroke="black"/>
<path d="M230.278,267.203v 3.61085" fill="none" stroke="black"/>
<path d="M240.564,267.203v 3.61085" fill="none" stroke="black"/>
<path d="M250.85,263.592v 7.2217" fill="none" stroke="black"/>
<path d="M261.136,267.203v 3.61085" fill="none" stroke="black"/>
<path d="M271.422,267.203v 3.61085" fill="none" stroke="black"/>
<path d="M281.708,267.203v 3.61085" fill="none" stroke="black"/>
<path d="M291.995,267.203v 3.61085" fill="none" stroke="black"/>
<path d="M302.281,263.592v 7.2217" fill="none" stroke="black"/>
<path d="M312.567,267.203v 3.61085" fill="none" stroke="black"/>
<path d="M322.853,267.203v 3.61085" fill="none" stroke="black"/>
<path d="M333.139,267.203v 3.61085" fill="none" stroke="black"/>
<path d="M343.426,267.203v 3.61085" fill="none" stroke="black"/>
<path d="M353.712,263.592v 7.2217" fill="none" stroke="black"/>
<path d="M363.998,267.203v 3.61085" fill="none" stroke="black"/>
<path d="M374.284,267.203v 3.61085" fill="none" stroke="black"/>
<path d="M384.57,267.203v 3.61085" fill="none" stroke="black"/>
<path d="M394.856,267.203v 3.61085" fill="none" stroke="black"/>
<path d="M405.143,263.592v 7.2217" fill="none" stroke="black"/>
<path d="M415.429,267.203v 3.61085" fill="none" stroke="black"/>
<path d="M425.715,267.203v 3.61085" fill="none" stroke="black"/>
<path d="M436.001,267.203v 3.61085" fill="none" stroke="black"/>
<path d="M446.287,267.203v 3.61085" fill="none" stroke="black"/>
<path d="M456.574,263.592v 7.2217" fill="none" stroke="black"/>
<path d="M466.86,267.203v 3.61085" fill="none" stroke="black"/>
<path d="M477.146,267.203v 3.61085" fill="none" stroke="black"/>
<path d="M487.432,267.203v 3.61085" fill="none" stroke="black"/>
<path d="M497.718,267.203v 3.61085" fill="none" stroke="black"/>
<path d="M508.004,263.592v 7.2217" fill="none" stroke="black"/>
<path d="M96.5572,263.592v 7.2217" fill="none" stroke="black"/>
<path d="M86.271,267.203v 3.61085" fill="none" stroke="black"/>
<path d="M75.9849,267.203v 3.61085" fill="none" stroke="black"/>
<path d="M65.6987,267.203v 3.61085" fill="none" stroke="black"/>
<path d="M508.004,263.592v 7.2217" fill="none" stroke="black"/>
<text xml:space="preserve" x="94.4956" y="280.509" fill="black" font-size="10.1621" font-family="Helvetica">1</text>
<text xml:space="preserve" x="140.902" y="280.509" fill="black" font-size="10.1621" font-family="Helvetica">1.5</text>
<text xml:space="preserve" x="196.472" y="280.509" fill="black" font-size="10.1621" font-family="Helvetica">2</text>
<text xml:space="preserve" x="243.765" y="280.509" fill="black" font-size="10.1621" font-family="Helvetica">2.5</text>
<text xml:space="preserve" x="299.335" y="280.509" fill="black" font-size="10.1621" font-family="Helvetica">3</text>
<text xml:space="preserve" x="346.628" y="280.509" fill="black" font-size="10.1621" font-family="Helvetica">3.5</text>
<text xml:space="preserve" x="402.198" y="280.509" fill="black" font-size="10.1621" font-family="Helvetica">4</text>
<text xml:space="preserve" x="449.491" y="280.509" fill="black" font-size="10.1621" font-family="Helvetica">4.5</text>
<text xml:space="preserve" x="505.061" y="280.509" fill="black" font-size="10.1621" font-family="Helvetica">5</text>
<text xml:space="preserve" x="450.969" y="290.263" fill="black" font-size="10.1621" font-family="Helvetica">Energy (MeV)</text>
<path d="M57.1929,270.814v -240.723" fill="none" stroke="black"/>
<path d="M70.7992,270.813h -13.6063" fill="none" stroke="black"/>
<text xml:space="preserve" x="48.9757" y="274.597" fill="black" font-size="10.1621" font-family="Helvetica">1</text>
<path d="M63.9961,239.321h -6.80315" fill="none" stroke="black"/>
<path d="M63.9961,220.899h -6.80315" fill="none" stroke="black"/>
<path d="M63.9961,207.829h -6.80315" fill="none" stroke="black"/>
<path d="M63.9961,197.69h -6.80315" fill="none" stroke="black"/>
<path d="M63.9961,189.407h -6.80315" fill="none" stroke="black"/>
<path d="M63.9961,182.403h -6.80315" fill="none" stroke="black"/>
<path d="M63.9961,176.336h -6.80315" fill="none" stroke="black"/>
<path d="M63.9961,170.985h -6.80315" fill="none" stroke="black"/>
<path d="M70.7992,166.198h -13.6063" fill="none" stroke="black"/>
<text xml:space="preserve" x="41.8817" y="169.665" fill="black" font-size="10.1621" font-family="Helvetica">10</text>
<path d="M63.9961,134.706h -6.80315" fill="none" stroke="black"/>
<path d="M63.9961,116.284h -6.80315" fill="none" stroke="black"/>
<path d="M63.9961,103.213h -6.80315" fill="none" stroke="black"/>
<path d="M63.9961,93.0751h -6.80315" fill="none" stroke="black"/>
<path d="M63.9961,84.7915h -6.80315" fill="none" stroke="black"/>
<path d="M63.9961,77.7879h -6.80315" fill="none" stroke="black"/>
<path d="M63.9961,71.721h -6.80315" fill="none" stroke="black"/>
<path d="M63.9961,66.3697h -6.80315" fill="none" stroke="black"/>
<path d="M70.7992,61.5828h -13.6063" fill="none" stroke="black"/>
<text xml:space="preserve" x="48.9757" y="61.7769" fill="black" font-size="6.94137" font-family="Helvetica">2</text>
<text xml:space="preserve" x="38.3347" y="65.9151" fill="black" font-size="10.1621" font-family="Helvetica">10</text>
<path d="M63.9961,30.0904h -6.80315" fill="none" stroke="black"/>
<g transform="rotate(-90,25.6246,175.577)">
<text xml:space="preserve" x="25.6246" y="175.577" fill="black" font-size="10.1621" font-family="Helvetica">No. of nuclear level density states</text>
</g>
<path d="M89.2129,219.777l 8.37295, -3.3047l 18.5151, -7.17801l 43.1197, -16.0583l 20.9838, -7.59879l 9.95702, -3.56422l 51.5029, -17.9924l 13.9583, -4.82162l 5.51339, -1.89431l 7.97179, -2.73284l 2.27325, -0.782218l 9.29871, -3.17222l 8.22894,
 -2.80149l 21.961, -7.42968l 6.84031, -2.30673l 6.73745, -2.26757l 5.02994, -1.68835l 1.60464, -0.540248l 3.08585, -1.03558l 1.02862, -0.3436l 5.34881, -1.79197l 0.586312, -0.196188l 0.34973, -0.117307l 0.21601, -0.073933l 0.246868, -0.082007l
 0.966901, -0.324522l 1.83094, -0.612084l 3.199, -1.06885l 1.04919, -0.351415l 6.45972, -2.15909l 3.97047, -1.32322l 0.730319, -0.242525l 0.576026, -0.193093l 0.884611, -0.293427l 3.83675, -1.27765l 0.925756, -0.309169l 0.91547, -0.307079l 3.199,
 -1.0637l 0.452592, -0.149236l 1.13148, -0.377526l 0.236582, -0.0787359l 4.35105, -1.44682l 2.04695, -0.67913l 0.534881, -0.177946l 1.75894, -0.585093l 1.46064, -0.484931l 1.74865, -0.580575l 0.730319, -0.242722l 0.658316, -0.217644l 3.08585,
 -1.02344l 3.46644, -1.15l 1.48121, -0.492097l 1.47092, -0.484049l 1.75894, -0.583174l 2.00581, -0.664968l 0.442306, -0.148252l 6.09971, -2.01599l 2.33496, -0.773394l 0.48345, -0.159165l 2.31439, -0.765252l 7.35462, -2.43103l 5.76026, -1.90019l
 2.05724, -0.677997l 2.55097, -0.841688l 1.51207, -0.498707l 2.67441, -0.880933l 5.91455, -1.94889l 1.74865, -0.575834l 10.8005, -3.55362l 0.174865, -0.0573193l 0.411447, -0.135614l 1.34749, -0.44276l 0.164579, -0.0547012l 2.93156, -0.964605l
 1.14177, -0.373987l 0.720033, -0.236479l 0.925756, -0.30437l 1.48121, -0.486942l 2.58183, -0.849128l 2.29382, -0.752633l 5.16366, -1.69465l 1.85151, -0.608037l 0.946329, -0.310848l 1.00805, -0.330653l 1.02862, -0.337586l 0.884611, -0.290353l
 6.83002, -2.23999l 1.38863, -0.454686l 0.154293, -0.0508868l 0.555454, -0.181998l 1.50178, -0.492295l 2.05724, -0.674307l 1.11091, -0.365283l 1.80008, -0.588772l 0.524595, -0.171645l 0.576026, -0.188818l 1.27549, -0.418088l 2.4584, -0.805471l
 0.91547, -0.301141l 1.31663, -0.429956l 0.946329, -0.308085l 0.390875, -0.129542l 1.65608, -0.542136l 0.874325, -0.286218l 0.504023, -0.165019l 1.4915, -0.488344l 1.40921, -0.461357l 4.34077, -1.42125l 0.684819, -0.222503" fill="none"
 stroke="black"/>
<g fill="black">
<rect x="88.0306" y="218.595" width="2.36467" height="2.36467"/>
<rect x="96.4035" y="215.29" width="2.36467" height="2.36467"/>
<rect x="114.919" y="208.112" width="2.36467" height="2.36467"/>
<rect x="158.038" y="192.054" width="2.36467" height="2.36467"/>
<rect x="179.022" y="184.455" width="2.36467" height="2.36467"/>
<rect x="188.979" y="180.891" width="2.36467" height="2.36467"/>
<rect x="240.482" y="162.899" width="2.36467" height="2.36467"/>
<rect x="254.44" y="158.077" width="2.36467" height="2.36467"/>
<rect x="259.954" y="156.183" width="2.36467" height="2.36467"/>
<rect x="267.926" y="153.45" width="2.36467" height="2.36467"/>
<rect x="270.199" y="152.668" width="2.36467" height="2.36467"/>
<rect x="279.498" y="149.496" width="2.36467" height="2.36467"/>
<rect x="287.726" y="146.694" width="2.36467" height="2.36467"/>
<rect x="309.687" y="139.264" width="2.36467" height="2.36467"/>
<rect x="316.528" y="136.958" width="2.36467" height="2.36467"/>
<rect x="323.265" y="134.69" width="2.36467" height="2.36467"/>
<rect x="328.295" y="133.002" width="2.36467" height="2.36467"/>
<rect x="329.9" y="132.461" width="2.36467" height="2.36467"/>
<rect x="332.986" y="131.426" width="2.36467" height="2.36467"/>
<rect x="334.014" y="131.082" width="2.36467" height="2.36467"/>
<rect x="339.363" y="129.29" width="2.36467" height="2.36467"/>
<rect x="339.949" y="129.094" width="2.36467" height="2.36467"/>
<rect x="340.299" y="128.977" width="2.36467" height="2.36467"/>
<rect x="340.515" y="128.903" width="2.36467" height="2.36467"/>
<rect x="340.762" y="128.821" width="2.36467" height="2.36467"/>
<rect x="341.729" y="128.496" width="2.36467" height="2.36467"/>
<rect x="343.56" y="127.884" width="2.36467" height="2.36467"/>
<rect x="346.759" y="126.815" width="2.36467" height="2.36467"/>
<rect x="347.808" y="126.464" width="2.36467" height="2.36467"/>
<rect x="354.268" y="124.305" width="2.36467" height="2.36467"/>
<rect x="358.238" y="122.982" width="2.36467" height="2.36467"/>
<rect x="358.969" y="122.739" width="2.36467" height="2.36467"/>
<rect x="359.545" y="122.546" width="2.36467" height="2.36467"/>
<rect x="360.429" y="122.253" width="2.36467" height="2.36467"/>
<rect x="364.266" y="120.975" width="2.36467" height="2.36467"/>
<rect x="365.192" y="120.666" width="2.36467" height="2.36467"/>
<rect x="366.107" y="120.359" width="2.36467" height="2.36467"/>
<rect x="369.306" y="119.295" width="2.36467" height="2.36467"/>
<rect x="369.759" y="119.146" width="2.36467" height="2.36467"/>
<rect x="370.89" y="118.768" width="2.36467" height="2.36467"/>
<rect x="371.127" y="118.69" width="2.36467" height="2.36467"/>
<rect x="375.478" y="117.243" width="2.36467" height="2.36467"/>
<rect x="377.525" y="116.564" width="2.36467" height="2.36467"/>
<rect x="378.06" y="116.386" width="2.36467" height="2.36467"/>
<rect x="379.819" y="115.801" width="2.36467" height="2.36467"/>
<rect x="381.279" y="115.316" width="2.36467" height="2.36467"/>
<rect x="383.028" y="114.735" width="2.36467" height="2.36467"/>
<rect x="383.758" y="114.492" width="2.36467" height="2.36467"/>
<rect x="384.417" y="114.275" width="2.36467" height="2.36467"/>
<rect x="387.502" y="113.251" width="2.36467" height="2.36467"/>
<rect x="390.969" y="112.101" width="2.36467" height="2.36467"/>
<rect x="392.45" y="111.609" width="2.36467" height="2.36467"/>
<rect x="393.921" y="111.125" width="2.36467" height="2.36467"/>
<rect x="395.68" y="110.542" width="2.36467" height="2.36467"/>
<rect x="397.686" y="109.877" width="2.36467" height="2.36467"/>
<rect x="398.128" y="109.729" width="2.36467" height="2.36467"/>
<rect x="404.228" y="107.713" width="2.36467" height="2.36467"/>
<rect x="406.563" y="106.939" width="2.36467" height="2.36467"/>
<rect x="407.046" y="106.78" width="2.36467" height="2.36467"/>
<rect x="409.361" y="106.015" width="2.36467" height="2.36467"/>
<rect x="416.715" y="103.584" width="2.36467" height="2.36467"/>
<rect x="422.475" y="101.684" width="2.36467" height="2.36467"/>
<rect x="424.533" y="101.006" width="2.36467" height="2.36467"/>
<rect x="427.084" y="100.164" width="2.36467" height="2.36467"/>
<rect x="428.596" y="99.6653" width="2.36467" height="2.36467"/>
<rect x="431.27" y="98.7844" width="2.36467" height="2.36467"/>
<rect x="437.185" y="96.8355" width="2.36467" height="2.36467"/>
<rect x="438.933" y="96.2597" width="2.36467" height="2.36467"/>
<rect x="449.734" y="92.706" width="2.36467" height="2.36467"/>
<rect x="449.909" y="92.6487" width="2.36467" height="2.36467"/>
<rect x="450.32" y="92.5131" width="2.36467" height="2.36467"/>
<rect x="451.668" y="92.0704" width="2.36467" height="2.36467"/>
<rect x="451.832" y="92.0157" width="2.36467" height="2.36467"/>
<rect x="454.764" y="91.051" width="2.36467" height="2.36467"/>
<rect x="455.906" y="90.6771" width="2.36467" height="2.36467"/>
<rect x="456.626" y="90.4406" width="2.36467" height="2.36467"/>
<rect x="457.551" y="90.1362" width="2.36467" height="2.36467"/>
<rect x="459.033" y="89.6493" width="2.36467" height="2.36467"/>
<rect x="461.614" y="88.8001" width="2.36467" height="2.36467"/>
<rect x="463.908" y="88.0475" width="2.36467" height="2.36467"/>
<rect x="469.072" y="86.3529" width="2.36467" height="2.36467"/>
<rect x="470.923" y="85.7448" width="2.36467" height="2.36467"/>
<rect x="471.87" y="85.434" width="2.36467" height="2.36467"/>
<rect x="472.878" y="85.1033" width="2.36467" height="2.36467"/>
<rect x="473.906" y="84.7657" width="2.36467" height="2.36467"/>
<rect x="474.791" y="84.4754" width="2.36467" height="2.36467"/>
<rect x="481.621" y="82.2354" width="2.36467" height="2.36467"/>
<rect x="483.01" y="81.7807" width="2.36467" height="2.36467"/>
<rect x="483.164" y="81.7298" width="2.36467" height="2.36467"/>
<rect x="483.719" y="81.5478" width="2.36467" height="2.36467"/>
<rect x="485.221" y="81.0555" width="2.36467" height="2.36467"/>
<rect x="487.278" y="80.3812" width="2.36467" height="2.36467"/>
<rect x="488.389" y="80.0159" width="2.36467" height="2.36467"/>
<rect x="490.189" y="79.4272" width="2.36467" height="2.36467"/>
<rect x="490.714" y="79.2555" width="2.36467" height="2.36467"/>
<rect x="491.29" y="79.0667" width="2.36467" height="2.36467"/>
<rect x="492.565" y="78.6486" width="2.36467" height="2.36467"/>
<rect x="495.024" y="77.8431" width="2.36467" height="2.36467"/>
<rect x="495.939" y="77.542" width="2.36467" height="2.36467"/>
<rect x="497.256" y="77.1121" width="2.36467" height="2.36467"/>
<rect x="498.202" y="76.804" width="2.36467" height="2.36467"/>
<rect x="498.593" y="76.6744" width="2.36467" height="2.36467"/>
<rect x="500.249" y="76.1323" width="2.36467" height="2.36467"/>
<rect x="501.124" y="75.8461" width="2.36467" height="2.36467"/>
<rect x="501.628" y="75.6811" width="2.36467" height="2.36467"/>
<rect x="503.119" y="75.1927" width="2.36467" height="2.36467"/>
<rect x="504.528" y="74.7314" width="2.36467" height="2.36467"/>
<rect x="508.869" y="73.3101" width="2.36467" height="2.36467"/>
</g>
<path d="M89.2129,224.491l 8.37295, -2.71969l 18.5151, -5.99346l 43.1197, -13.9714l 20.9838, -6.80569l 9.95702, -3.22303l 51.5029, -16.69l 13.9583, -4.51928l 5.51339, -1.78522l 7.97179, -2.58464l 2.27325, -0.739072l 9.29871, -3.00928l 8.22894,
 -2.66869l 21.961, -7.1168l 6.84031, -2.21512l 6.73745, -2.1826l 5.02994, -1.6299l 1.60464, -0.519854l 3.08585, -0.999349l 1.02862, -0.333017l 5.34881, -1.73328l 0.586312, -0.190682l 0.34973, -0.114026l 0.21601, -0.0704444l 0.246868, -0.0784439l
 0.966901, -0.315112l 1.83094, -0.591964l 3.199, -1.03716l 1.04919, -0.340524l 6.45972, -2.09442l 3.97047, -1.28489l 0.730319, -0.235588l 0.576026, -0.187122l 0.884611, -0.285119l 3.83675, -1.24421l 0.925756, -0.300692l 0.91547, -0.298715l 3.199,
 -1.03471l 0.452592, -0.147481l 1.13148, -0.365531l 0.236582, -0.0762369l 4.35105, -1.40995l 2.04695, -0.663953l 0.534881, -0.172252l 1.75894, -0.570183l 1.46064, -0.474132l 1.74865, -0.567302l 0.730319, -0.237284l 0.658316, -0.212304l 3.08585,
 -0.998501l 3.46644, -1.12462l 1.48121, -0.481065l 1.47092, -0.474175l 1.75894, -0.569861l 2.00581, -0.651127l 0.442306, -0.143835l 6.09971, -1.97417l 2.33496, -0.758485l 0.48345, -0.156928l 2.31439, -0.74845l 7.35462, -2.38527l 5.76026, -1.86514l
 2.05724, -0.666582l 2.55097, -0.826643l 1.51207, -0.489439l 2.67441, -0.867069l 5.91455, -1.91623l 1.74865, -0.567104l 10.8005, -3.49947l 0.174865, -0.0558728l 0.411447, -0.133815l 1.34749, -0.437099l 0.164579, -0.0526599l 2.93156, -0.950775l
 1.14177, -0.368864l 0.720033, -0.233612l 0.925756, -0.300618l 1.48121, -0.479216l 2.58183, -0.83864l 2.29382, -0.74154l 5.16366, -1.67341l 1.85151, -0.599959l 0.946329, -0.306584l 1.00805, -0.326655l 1.02862, -0.332689l 0.884611, -0.28665l 6.83002,
 -2.21351l 1.38863, -0.450044l 0.154293, -0.0499483l 0.555454, -0.179751l 1.50178, -0.486821l 2.05724, -0.66644l 1.11091, -0.36072l 1.80008, -0.582806l 0.524595, -0.170055l 0.576026, -0.186051l 1.27549, -0.413791l 2.4584, -0.796661l 0.91547,
 -0.29764l 1.31663, -0.425134l 0.946329, -0.30527l 0.390875, -0.128201l 1.65608, -0.536953l 0.874325, -0.283342l 0.504023, -0.163326l 1.4915, -0.48309l 1.40921, -0.456159l 4.34077, -1.40768l 0.684819, -0.220342" fill="none" stroke="black"/>
<g fill="#0000ff">
<circle cx="89.2129" cy="224.491" r="1.18233"/>
<circle cx="97.5858" cy="221.771" r="1.18233"/>
<circle cx="116.101" cy="215.777" r="1.18233"/>
<circle cx="159.221" cy="201.806" r="1.18233"/>
<circle cx="180.204" cy="195" r="1.18233"/>
<circle cx="190.161" cy="191.777" r="1.18233"/>
<circle cx="241.664" cy="175.087" r="1.18233"/>
<circle cx="255.623" cy="170.568" r="1.18233"/>
<circle cx="261.136" cy="168.783" r="1.18233"/>
<circle cx="269.108" cy="166.198" r="1.18233"/>
<circle cx="271.381" cy="165.459" r="1.18233"/>
<circle cx="280.68" cy="162.45" r="1.18233"/>
<circle cx="288.909" cy="159.781" r="1.18233"/>
<circle cx="310.87" cy="152.664" r="1.18233"/>
<circle cx="317.71" cy="150.449" r="1.18233"/>
<circle cx="324.448" cy="148.267" r="1.18233"/>
<circle cx="329.478" cy="146.637" r="1.18233"/>
<circle cx="331.082" cy="146.117" r="1.18233"/>
<circle cx="334.168" cy="145.118" r="1.18233"/>
<circle cx="335.197" cy="144.784" r="1.18233"/>
<circle cx="340.545" cy="143.051" r="1.18233"/>
<circle cx="341.132" cy="142.861" r="1.18233"/>
<circle cx="341.481" cy="142.747" r="1.18233"/>
<circle cx="341.697" cy="142.676" r="1.18233"/>
<circle cx="341.944" cy="142.598" r="1.18233"/>
<circle cx="342.911" cy="142.283" r="1.18233"/>
<circle cx="344.742" cy="141.691" r="1.18233"/>
<circle cx="347.941" cy="140.653" r="1.18233"/>
<circle cx="348.99" cy="140.313" r="1.18233"/>
<circle cx="355.45" cy="138.218" r="1.18233"/>
<circle cx="359.421" cy="136.934" r="1.18233"/>
<circle cx="360.151" cy="136.698" r="1.18233"/>
<circle cx="360.727" cy="136.511" r="1.18233"/>
<circle cx="361.612" cy="136.226" r="1.18233"/>
<circle cx="365.448" cy="134.982" r="1.18233"/>
<circle cx="366.374" cy="134.681" r="1.18233"/>
<circle cx="367.289" cy="134.382" r="1.18233"/>
<circle cx="370.488" cy="133.347" r="1.18233"/>
<circle cx="370.941" cy="133.2" r="1.18233"/>
<circle cx="372.073" cy="132.834" r="1.18233"/>
<circle cx="372.309" cy="132.758" r="1.18233"/>
<circle cx="376.66" cy="131.348" r="1.18233"/>
<circle cx="378.707" cy="130.684" r="1.18233"/>
<circle cx="379.242" cy="130.512" r="1.18233"/>
<circle cx="381.001" cy="129.942" r="1.18233"/>
<circle cx="382.462" cy="129.468" r="1.18233"/>
<circle cx="384.21" cy="128.9" r="1.18233"/>
<circle cx="384.941" cy="128.663" r="1.18233"/>
<circle cx="385.599" cy="128.451" r="1.18233"/>
<circle cx="388.685" cy="127.452" r="1.18233"/>
<circle cx="392.151" cy="126.328" r="1.18233"/>
<circle cx="393.632" cy="125.847" r="1.18233"/>
<circle cx="395.103" cy="125.372" r="1.18233"/>
<circle cx="396.862" cy="124.803" r="1.18233"/>
<circle cx="398.868" cy="124.151" r="1.18233"/>
<circle cx="399.31" cy="124.008" r="1.18233"/>
<circle cx="405.41" cy="122.033" r="1.18233"/>
<circle cx="407.745" cy="121.275" r="1.18233"/>
<circle cx="408.228" cy="121.118" r="1.18233"/>
<circle cx="410.543" cy="120.37" r="1.18233"/>
<circle cx="417.898" cy="117.984" r="1.18233"/>
<circle cx="423.658" cy="116.119" r="1.18233"/>
<circle cx="425.715" cy="115.453" r="1.18233"/>
<circle cx="428.266" cy="114.626" r="1.18233"/>
<circle cx="429.778" cy="114.137" r="1.18233"/>
<circle cx="432.452" cy="113.269" r="1.18233"/>
<circle cx="438.367" cy="111.353" r="1.18233"/>
<circle cx="440.116" cy="110.786" r="1.18233"/>
<circle cx="450.916" cy="107.287" r="1.18233"/>
<circle cx="451.091" cy="107.231" r="1.18233"/>
<circle cx="451.502" cy="107.097" r="1.18233"/>
<circle cx="452.85" cy="106.66" r="1.18233"/>
<circle cx="453.015" cy="106.607" r="1.18233"/>
<circle cx="455.946" cy="105.656" r="1.18233"/>
<circle cx="457.088" cy="105.288" r="1.18233"/>
<circle cx="457.808" cy="105.054" r="1.18233"/>
<circle cx="458.734" cy="104.753" r="1.18233"/>
<circle cx="460.215" cy="104.274" r="1.18233"/>
<circle cx="462.797" cy="103.435" r="1.18233"/>
<circle cx="465.091" cy="102.694" r="1.18233"/>
<circle cx="470.254" cy="101.021" r="1.18233"/>
<circle cx="472.106" cy="100.421" r="1.18233"/>
<circle cx="473.052" cy="100.114" r="1.18233"/>
<circle cx="474.06" cy="99.7873" r="1.18233"/>
<circle cx="475.089" cy="99.4546" r="1.18233"/>
<circle cx="475.973" cy="99.168" r="1.18233"/>
<circle cx="482.803" cy="96.9545" r="1.18233"/>
<circle cx="484.192" cy="96.5044" r="1.18233"/>
<circle cx="484.346" cy="96.4545" r="1.18233"/>
<circle cx="484.902" cy="96.2747" r="1.18233"/>
<circle cx="486.403" cy="95.7879" r="1.18233"/>
<circle cx="488.461" cy="95.1215" r="1.18233"/>
<circle cx="489.572" cy="94.7607" r="1.18233"/>
<circle cx="491.372" cy="94.1779" r="1.18233"/>
<circle cx="491.896" cy="94.0079" r="1.18233"/>
<circle cx="492.472" cy="93.8218" r="1.18233"/>
<circle cx="493.748" cy="93.408" r="1.18233"/>
<circle cx="496.206" cy="92.6114" r="1.18233"/>
<circle cx="497.122" cy="92.3137" r="1.18233"/>
<circle cx="498.438" cy="91.8886" r="1.18233"/>
<circle cx="499.385" cy="91.5833" r="1.18233"/>
<circle cx="499.776" cy="91.4551" r="1.18233"/>
<circle cx="501.432" cy="90.9182" r="1.18233"/>
<circle cx="502.306" cy="90.6348" r="1.18233"/>
<circle cx="502.81" cy="90.4715" r="1.18233"/>
<circle cx="504.301" cy="89.9884" r="1.18233"/>
<circle cx="505.711" cy="89.5323" r="1.18233"/>
<circle cx="510.051" cy="88.1246" r="1.18233"/>
</g>
<path d="M89.2129,236.545l 8.37295, -3.88911l 18.5151, -8.50862l 43.1197, -19.2972l 20.9838, -8.89817l 9.95702, -4.11913l 51.5029, -20.747l 13.9583, -5.46139l 5.51339, -2.14253l 7.97179, -3.07752l 2.27325, -0.879316l 9.29871, -3.55994l 8.22894,
 -3.12881l 21.961, -8.25592l 6.84031, -2.53917l 6.73745, -2.49328l 5.02994, -1.84965l 1.60464, -0.590607l 3.08585, -1.13064l 1.02862, -0.376892l 5.34881, -1.95228l 0.586312, -0.214776l 0.34973, -0.127939l 0.21601, -0.0770309l 0.246868, -0.0900704l
 0.966901, -0.354151l 1.83094, -0.663659l 3.199, -1.16107l 1.04919, -0.379139l 6.45972, -2.33699l 3.97047, -1.42762l 0.730319, -0.262756l 0.576026, -0.206471l 0.884611, -0.318281l 3.83675, -1.37344l 0.925756, -0.333807l 0.91547, -0.327784l 3.199,
 -1.14122l 0.452592, -0.160717l 1.13148, -0.404508l 0.236582, -0.0846117l 4.35105, -1.54672l 2.04695, -0.726164l 0.534881, -0.189956l 1.75894, -0.623214l 1.46064, -0.517675l 1.74865, -0.617296l 0.730319, -0.25866l 0.658316, -0.232319l 3.08585,
 -1.08796l 3.46644, -1.21947l 1.48121, -0.521753l 1.47092, -0.512939l 1.75894, -0.617103l 2.00581, -0.702968l 0.442306, -0.155526l 6.09971, -2.12592l 2.33496, -0.814885l 0.48345, -0.167508l 2.31439, -0.804023l 7.35462, -2.54778l 5.76026, -1.98473l
 2.05724, -0.707614l 2.55097, -0.875465l 1.51207, -0.518626l 2.67441, -0.915603l 5.91455, -2.01947l 1.74865, -0.595927l 10.8005, -3.66411l 0.174865, -0.0595941l 0.411447, -0.13875l 1.34749, -0.455731l 0.164579, -0.0550154l 2.93156, -0.990909l
 1.14177, -0.383158l 0.720033, -0.242565l 0.925756, -0.311892l 1.48121, -0.498327l 2.58183, -0.868017l 2.29382, -0.768307l 5.16366, -1.72817l 1.85151, -0.618435l 0.946329, -0.315332l 1.00805, -0.3363l 1.02862, -0.342539l 0.884611, -0.294373l 6.83002,
 -2.27004l 1.38863, -0.46012l 0.154293, -0.0510847l 0.555454, -0.183873l 1.50178, -0.496927l 2.05724, -0.680085l 1.11091, -0.368328l 1.80008, -0.593027l 0.524595, -0.173328l 0.576026, -0.189412l 1.27549, -0.420719l 2.4584, -0.808889l 0.91547,
 -0.30244l 1.31663, -0.431553l 0.946329, -0.30889l 0.390875, -0.129851l 1.65608, -0.543841l 0.874325, -0.286066l 0.504023, -0.165343l 1.4915, -0.488607l 1.40921, -0.461229l 4.34077, -1.41895l 0.684819, -0.222139" fill="none" stroke="black"/>
<g fill="#ffff00">
<circle cx="89.2129" cy="236.545" r="1.18233"/>
<circle cx="97.5858" cy="232.656" r="1.18233"/>
<circle cx="116.101" cy="224.148" r="1.18233"/>
<circle cx="159.221" cy="204.85" r="1.18233"/>
<circle cx="180.204" cy="195.952" r="1.18233"/>
<circle cx="190.161" cy="191.833" r="1.18233"/>
<circle cx="241.664" cy="171.086" r="1.18233"/>
<circle cx="255.623" cy="165.625" r="1.18233"/>
<circle cx="261.136" cy="163.482" r="1.18233"/>
<circle cx="269.108" cy="160.405" r="1.18233"/>
<circle cx="271.381" cy="159.525" r="1.18233"/>
<circle cx="280.68" cy="155.965" r="1.18233"/>
<circle cx="288.909" cy="152.837" r="1.18233"/>
<circle cx="310.87" cy="144.581" r="1.18233"/>
<circle cx="317.71" cy="142.042" r="1.18233"/>
<circle cx="324.448" cy="139.548" r="1.18233"/>
<circle cx="329.478" cy="137.699" r="1.18233"/>
<circle cx="331.082" cy="137.108" r="1.18233"/>
<circle cx="334.168" cy="135.977" r="1.18233"/>
<circle cx="335.197" cy="135.601" r="1.18233"/>
<circle cx="340.545" cy="133.648" r="1.18233"/>
<circle cx="341.132" cy="133.433" r="1.18233"/>
<circle cx="341.481" cy="133.306" r="1.18233"/>
<circle cx="341.697" cy="133.229" r="1.18233"/>
<circle cx="341.944" cy="133.138" r="1.18233"/>
<circle cx="342.911" cy="132.784" r="1.18233"/>
<circle cx="344.742" cy="132.121" r="1.18233"/>
<circle cx="347.941" cy="130.96" r="1.18233"/>
<circle cx="348.99" cy="130.58" r="1.18233"/>
<circle cx="355.45" cy="128.243" r="1.18233"/>
<circle cx="359.421" cy="126.816" r="1.18233"/>
<circle cx="360.151" cy="126.553" r="1.18233"/>
<circle cx="360.727" cy="126.347" r="1.18233"/>
<circle cx="361.612" cy="126.028" r="1.18233"/>
<circle cx="365.448" cy="124.655" r="1.18233"/>
<circle cx="366.374" cy="124.321" r="1.18233"/>
<circle cx="367.289" cy="123.993" r="1.18233"/>
<circle cx="370.488" cy="122.852" r="1.18233"/>
<circle cx="370.941" cy="122.691" r="1.18233"/>
<circle cx="372.073" cy="122.287" r="1.18233"/>
<circle cx="372.309" cy="122.202" r="1.18233"/>
<circle cx="376.66" cy="120.655" r="1.18233"/>
<circle cx="378.707" cy="119.929" r="1.18233"/>
<circle cx="379.242" cy="119.739" r="1.18233"/>
<circle cx="381.001" cy="119.116" r="1.18233"/>
<circle cx="382.462" cy="118.598" r="1.18233"/>
<circle cx="384.21" cy="117.981" r="1.18233"/>
<circle cx="384.941" cy="117.723" r="1.18233"/>
<circle cx="385.599" cy="117.49" r="1.18233"/>
<circle cx="388.685" cy="116.402" r="1.18233"/>
<circle cx="392.151" cy="115.183" r="1.18233"/>
<circle cx="393.632" cy="114.661" r="1.18233"/>
<circle cx="395.103" cy="114.148" r="1.18233"/>
<circle cx="396.862" cy="113.531" r="1.18233"/>
<circle cx="398.868" cy="112.828" r="1.18233"/>
<circle cx="399.31" cy="112.672" r="1.18233"/>
<circle cx="405.41" cy="110.547" r="1.18233"/>
<circle cx="407.745" cy="109.732" r="1.18233"/>
<circle cx="408.228" cy="109.564" r="1.18233"/>
<circle cx="410.543" cy="108.76" r="1.18233"/>
<circle cx="417.898" cy="106.212" r="1.18233"/>
<circle cx="423.658" cy="104.228" r="1.18233"/>
<circle cx="425.715" cy="103.52" r="1.18233"/>
<circle cx="428.266" cy="102.645" r="1.18233"/>
<circle cx="429.778" cy="102.126" r="1.18233"/>
<circle cx="432.452" cy="101.21" r="1.18233"/>
<circle cx="438.367" cy="99.1908" r="1.18233"/>
<circle cx="440.116" cy="98.5949" r="1.18233"/>
<circle cx="450.916" cy="94.9308" r="1.18233"/>
<circle cx="451.091" cy="94.8712" r="1.18233"/>
<circle cx="451.502" cy="94.7325" r="1.18233"/>
<circle cx="452.85" cy="94.2767" r="1.18233"/>
<circle cx="453.015" cy="94.2217" r="1.18233"/>
<circle cx="455.946" cy="93.2308" r="1.18233"/>
<circle cx="457.088" cy="92.8476" r="1.18233"/>
<circle cx="457.808" cy="92.6051" r="1.18233"/>
<circle cx="458.734" cy="92.2932" r="1.18233"/>
<circle cx="460.215" cy="91.7949" r="1.18233"/>
<circle cx="462.797" cy="90.9268" r="1.18233"/>
<circle cx="465.091" cy="90.1585" r="1.18233"/>
<circle cx="470.254" cy="88.4304" r="1.18233"/>
<circle cx="472.106" cy="87.8119" r="1.18233"/>
<circle cx="473.052" cy="87.4966" r="1.18233"/>
<circle cx="474.06" cy="87.1603" r="1.18233"/>
<circle cx="475.089" cy="86.8178" r="1.18233"/>
<circle cx="475.973" cy="86.5234" r="1.18233"/>
<circle cx="482.803" cy="84.2533" r="1.18233"/>
<circle cx="484.192" cy="83.7932" r="1.18233"/>
<circle cx="484.346" cy="83.7421" r="1.18233"/>
<circle cx="484.902" cy="83.5583" r="1.18233"/>
<circle cx="486.403" cy="83.0613" r="1.18233"/>
<circle cx="488.461" cy="82.3813" r="1.18233"/>
<circle cx="489.572" cy="82.0129" r="1.18233"/>
<circle cx="491.372" cy="81.4199" r="1.18233"/>
<circle cx="491.896" cy="81.2466" r="1.18233"/>
<circle cx="492.472" cy="81.0572" r="1.18233"/>
<circle cx="493.748" cy="80.6365" r="1.18233"/>
<circle cx="496.206" cy="79.8276" r="1.18233"/>
<circle cx="497.122" cy="79.5251" r="1.18233"/>
<circle cx="498.438" cy="79.0936" r="1.18233"/>
<circle cx="499.385" cy="78.7847" r="1.18233"/>
<circle cx="499.776" cy="78.6548" r="1.18233"/>
<circle cx="501.432" cy="78.111" r="1.18233"/>
<circle cx="502.306" cy="77.8249" r="1.18233"/>
<circle cx="502.81" cy="77.6596" r="1.18233"/>
<circle cx="504.301" cy="77.171" r="1.18233"/>
<circle cx="505.711" cy="76.7097" r="1.18233"/>
<circle cx="510.051" cy="75.2908" r="1.18233"/>
</g>
<path d="M89.2129,216.998l 8.37295, 13.6815l 18.5151, -0.522878l 43.1197, -0.71841l 20.9838, 21.7875l 9.95702, -34.89l 51.5029, -34.3007l 13.9583, -12.6273l 5.51339, -5.62035l 7.97179, -3.89542l 2.27325, -2.95843l 9.29871, -2.55739l 8.22894,
 -3.59137l 21.961, -5.86373l 6.84031, -4.25707l 6.73745, -2.00633l 5.02994, -3.18415l 1.60464, -2.12587l 3.08585, -1.50492l 1.02862, -1.32012l 5.34881, -2.04384l 0.586312, -1.90269l 0.34973, -0.299132l 0.21601, -0.182674l 0.246868, -0.148235l
 0.966901, -0.389849l 1.83094, -0.897452l 3.199, -1.61179l 1.04919, -1.36254l 6.45972, -1.11531l 3.97047, -1.53323l 0.730319, -0.691418l 0.576026, -0.191347l 0.884611, -0.214111l 3.83675, -0.693613l 0.925756, -0.701465l 0.91547, -0.271828l 3.199,
 -0.604611l 0.452592, -0.536174l 1.13148, -0.234162l 0.236582, -0.200799l 4.35105, -0.595682l 2.04695, 0.00144342h 16.3962l 1.75894, -0.00144342h 2.44811l 6.09971, -1.20781l 2.33496, -2.09576l 0.48345, -0.701876l 2.31439, -0.695102l 7.35462,
 -2.40549l 5.76026, -3.26002l 2.05724, -1.94322l 2.55097, -0.708886l 1.51207, -0.3498l 2.67441, -0.361001l 5.91455, -0.73976l 1.74865, -0.660709l 10.8005, -1.08162l 0.174865, -0.946772l 0.411447, -0.0504321l 1.34749, -0.250341l 0.164579, -0.222569l
 2.93156, -0.455452l 1.14177, -0.598342l 0.720033, -0.273449l 0.925756, -0.241587l 1.48121, -0.353895l 2.58183, -0.597032l 2.29382, -0.716984l 5.16366, -1.09517l 1.85151, -1.03116l 0.946329, -0.410997l 1.00805, -0.287641l 1.02862, -0.299439l
 0.884611, -0.281425l 6.83002, -1.75708l 1.38863, -2.31476l 0.154293, -0.435204l 0.555454, -0.200052l 1.50178, -0.579131l 2.05724, -1.00286l 1.11091, -0.893261l 1.80008, -0.820094l 0.524595, -0.654242l 0.576026, -0.310444l 1.27549, -0.521426l 2.4584,
 -1.05205l 0.91547, -0.951526l 1.31663, -0.628851l 0.946329, -0.635584l 0.390875, -0.37624l 1.65608, -0.578583l 0.874325, -0.713019l 0.504023, -0.388358l 1.4915, -0.316067l 1.40921, -0.350563l 4.34077, -0.694298l 0.684819, -0.417982" fill="none"
 stroke="black"/>
<g fill="#ff00ff">
<circle cx="89.2129" cy="216.998" r="1.18233"/>
<circle cx="97.5858" cy="230.679" r="1.18233"/>
<circle cx="116.101" cy="230.156" r="1.18233"/>
<circle cx="159.221" cy="229.438" r="1.18233"/>
<circle cx="180.204" cy="251.226" r="1.18233"/>
<circle cx="190.161" cy="216.336" r="1.18233"/>
<circle cx="241.664" cy="182.035" r="1.18233"/>
<circle cx="255.623" cy="169.408" r="1.18233"/>
<circle cx="261.136" cy="163.787" r="1.18233"/>
<circle cx="269.108" cy="159.892" r="1.18233"/>
<circle cx="271.381" cy="156.933" r="1.18233"/>
<circle cx="280.68" cy="154.376" r="1.18233"/>
<circle cx="288.909" cy="150.785" r="1.18233"/>
<circle cx="310.87" cy="144.921" r="1.18233"/>
<circle cx="317.71" cy="140.664" r="1.18233"/>
<circle cx="324.448" cy="138.657" r="1.18233"/>
<circle cx="329.478" cy="135.473" r="1.18233"/>
<circle cx="331.082" cy="133.347" r="1.18233"/>
<circle cx="334.168" cy="131.842" r="1.18233"/>
<circle cx="335.197" cy="130.522" r="1.18233"/>
<circle cx="340.545" cy="128.479" r="1.18233"/>
<circle cx="341.132" cy="126.576" r="1.18233"/>
<circle cx="341.481" cy="126.277" r="1.18233"/>
<circle cx="341.697" cy="126.094" r="1.18233"/>
<circle cx="341.944" cy="125.946" r="1.18233"/>
<circle cx="342.911" cy="125.556" r="1.18233"/>
<circle cx="344.742" cy="124.658" r="1.18233"/>
<circle cx="347.941" cy="123.047" r="1.18233"/>
<circle cx="348.99" cy="121.684" r="1.18233"/>
<circle cx="355.45" cy="120.569" r="1.18233"/>
<circle cx="359.421" cy="119.036" r="1.18233"/>
<circle cx="360.151" cy="118.344" r="1.18233"/>
<circle cx="360.727" cy="118.153" r="1.18233"/>
<circle cx="361.612" cy="117.939" r="1.18233"/>
<circle cx="365.448" cy="117.245" r="1.18233"/>
<circle cx="366.374" cy="116.544" r="1.18233"/>
<circle cx="367.289" cy="116.272" r="1.18233"/>
<circle cx="370.488" cy="115.667" r="1.18233"/>
<circle cx="370.941" cy="115.131" r="1.18233"/>
<circle cx="372.073" cy="114.897" r="1.18233"/>
<circle cx="372.309" cy="114.696" r="1.18233"/>
<circle cx="376.66" cy="114.1" r="1.18233"/>
<circle cx="378.707" cy="114.102" r="1.18233"/>
<circle cx="379.242" cy="114.102" r="1.18233"/>
<circle cx="381.001" cy="114.102" r="1.18233"/>
<circle cx="382.462" cy="114.102" r="1.18233"/>
<circle cx="384.21" cy="114.102" r="1.18233"/>
<circle cx="384.941" cy="114.102" r="1.18233"/>
<circle cx="385.599" cy="114.102" r="1.18233"/>
<circle cx="388.685" cy="114.102" r="1.18233"/>
<circle cx="392.151" cy="114.102" r="1.18233"/>
<circle cx="393.632" cy="114.102" r="1.18233"/>
<circle cx="395.103" cy="114.102" r="1.18233"/>
<circle cx="396.862" cy="114.1" r="1.18233"/>
<circle cx="398.868" cy="114.1" r="1.18233"/>
<circle cx="399.31" cy="114.1" r="1.18233"/>
<circle cx="405.41" cy="112.893" r="1.18233"/>
<circle cx="407.745" cy="110.797" r="1.18233"/>
<circle cx="408.228" cy="110.095" r="1.18233"/>
<circle cx="410.543" cy="109.4" r="1.18233"/>
<circle cx="417.898" cy="106.994" r="1.18233"/>
<circle cx="423.658" cy="103.734" r="1.18233"/>
<circle cx="425.715" cy="101.791" r="1.18233"/>
<circle cx="428.266" cy="101.082" r="1.18233"/>
<circle cx="429.778" cy="100.732" r="1.18233"/>
<circle cx="432.452" cy="100.371" r="1.18233"/>
<circle cx="438.367" cy="99.6317" r="1.18233"/>
<circle cx="440.116" cy="98.971" r="1.18233"/>
<circle cx="450.916" cy="97.8894" r="1.18233"/>
<circle cx="451.091" cy="96.9426" r="1.18233"/>
<circle cx="451.502" cy="96.8922" r="1.18233"/>
<circle cx="452.85" cy="96.6418" r="1.18233"/>
<circle cx="453.015" cy="96.4192" r="1.18233"/>
<circle cx="455.946" cy="95.9638" r="1.18233"/>
<circle cx="457.088" cy="95.3654" r="1.18233"/>
<circle cx="457.808" cy="95.092" r="1.18233"/>
<circle cx="458.734" cy="94.8504" r="1.18233"/>
<circle cx="460.215" cy="94.4965" r="1.18233"/>
<circle cx="462.797" cy="93.8995" r="1.18233"/>
<circle cx="465.091" cy="93.1825" r="1.18233"/>
<circle cx="470.254" cy="92.0873" r="1.18233"/>
<circle cx="472.106" cy="91.0562" r="1.18233"/>
<circle cx="473.052" cy="90.6452" r="1.18233"/>
<circle cx="474.06" cy="90.3575" r="1.18233"/>
<circle cx="475.089" cy="90.0581" r="1.18233"/>
<circle cx="475.973" cy="89.7767" r="1.18233"/>
<circle cx="482.803" cy="88.0196" r="1.18233"/>
<circle cx="484.192" cy="85.7048" r="1.18233"/>
<circle cx="484.346" cy="85.2696" r="1.18233"/>
<circle cx="484.902" cy="85.0696" r="1.18233"/>
<circle cx="486.403" cy="84.4904" r="1.18233"/>
<circle cx="488.461" cy="83.4876" r="1.18233"/>
<circle cx="489.572" cy="82.5943" r="1.18233"/>
<circle cx="491.372" cy="81.7742" r="1.18233"/>
<circle cx="491.896" cy="81.12" r="1.18233"/>
<circle cx="492.472" cy="80.8095" r="1.18233"/>
<circle cx="493.748" cy="80.2881" r="1.18233"/>
<circle cx="496.206" cy="79.2361" r="1.18233"/>
<circle cx="497.122" cy="78.2845" r="1.18233"/>
<circle cx="498.438" cy="77.6557" r="1.18233"/>
<circle cx="499.385" cy="77.0201" r="1.18233"/>
<circle cx="499.776" cy="76.6439" r="1.18233"/>
<circle cx="501.432" cy="76.0653" r="1.18233"/>
<circle cx="502.306" cy="75.3523" r="1.18233"/>
<circle cx="502.81" cy="74.9639" r="1.18233"/>
<circle cx="504.301" cy="74.6478" r="1.18233"/>
<circle cx="505.711" cy="74.2973" r="1.18233"/>
<circle cx="510.051" cy="73.603" r="1.18233"/>
</g>
<path d="M97.0909,270.814l 0.494929, -0.676448" fill="none" stroke="black"/>
<path d="M97.5858,270.137l 18.5151, -13.9571l 43.1197, -26.375l 20.9838, 14.8363l 9.95702, -34.1942l 51.5029, -46.9392l 13.9583, -15.0972l 5.51339, 3.58728l 7.97179, 2.60964l 2.27325, 1.98603l 9.29871, -0.139537l 8.22894, -11.2308l 21.961, -19.358l
 6.84031, -13.4926l 6.73745, -6.29123l 5.02994, -4.75583l 1.60464, -0.568479l 3.08585, -0.402812l 1.02862, -0.35273l 5.34881, -0.548068l 0.586312, -0.509494l 0.34973, -0.0805786l 0.21601, -0.0484848l 0.246868, -0.0401928l 0.966901, -0.103924l
 1.83094, -0.240888l 3.199, -0.433443l 1.04919, -0.365103l 6.45972, -0.91194l 3.97047, -3.85018l 0.730319, -1.73402l 0.576026, -0.482409l 0.884611, -0.538679l 3.83675, -1.74208l 0.925756, -1.75979l 0.91547, -0.682159l 3.199, -1.51944l 0.452592,
 -1.34797l 1.13148, -0.585215l 0.236582, -0.505951l 4.35105, -1.69518l 2.04695, -2.21186l 0.534881, -0.0378594l 1.75894, -0.0332641l 1.46064, -0.0469197l 1.74865, -0.0468713l 0.730319, -0.036422l 0.658316, -0.0201497l 3.08585, -0.0545542l 3.46644,
 -0.0966079l 1.48121, -0.0731297l 1.47092, -0.0439506l 1.75894, -0.0477803l 2.00581, -0.0561099l 0.442306, -0.0367242l 6.09971, -0.0977862l 2.33496, -0.0468884l 0.48345, -0.00962861l 2.31439, -0.00962657l 7.35462, -0.0333563l 5.76026, -0.0461453l
 2.05724, -0.028817l 2.55097, -0.0166415l 1.51207, 0.0307276l 2.67441, 0.780885l 5.91455, 1.6012l 1.74865, 1.42791l 10.8005, 2.33771l 0.174865, 2.04312l 0.411447, 0.109028l 1.34749, 0.327114l 0.164579, 0.281157l 2.93156, 0.577056l 1.14177, 0.757448l
 0.720033, 0.346309l 0.925756, 0.305811l 1.48121, 0.447403l 2.58183, 0.756717l 2.29382, 0.906598l 5.16366, 1.38508l 1.85151, 1.30363l 0.946329, 0.519479l 1.00805, 0.362867l 1.02862, 0.377877l 0.884611, 0.355731l 6.83002, 1.4321l 1.38863, 2.1695l
 0.154293, 0.442515l 0.555454, 0.204355l 1.50178, 0.590476l 2.05724, 1.02283l 1.11091, 0.910184l 1.80008, 0.835607l 0.524595, 0.666458l 0.576026, 0.315977l 1.27549, 0.531943l 2.4584, 1.07121l 0.91547, 0.969869l 1.31663, 0.640851l 0.946329, 0.646321l
 0.390875, 0.383797l 1.65608, 0.589401l 0.874325, 0.726226l 0.504023, 0.394616l 1.4915, 0.572925l 1.40921, 0.832535l 4.34077, 1.6501l 0.684819, 0.99261" fill="none" stroke="black"/>
<g fill="#00ffff">
<circle cx="97.5858" cy="270.137" r="1.18233"/>
<circle cx="116.101" cy="256.18" r="1.18233"/>
<circle cx="159.221" cy="229.805" r="1.18233"/>
<circle cx="180.204" cy="244.641" r="1.18233"/>
<circle cx="190.161" cy="210.447" r="1.18233"/>
<circle cx="241.664" cy="163.508" r="1.18233"/>
<circle cx="255.623" cy="148.411" r="1.18233"/>
<circle cx="261.136" cy="151.998" r="1.18233"/>
<circle cx="269.108" cy="154.608" r="1.18233"/>
<circle cx="271.381" cy="156.594" r="1.18233"/>
<circle cx="280.68" cy="156.454" r="1.18233"/>
<circle cx="288.909" cy="145.223" r="1.18233"/>
<circle cx="310.87" cy="125.865" r="1.18233"/>
<circle cx="317.71" cy="112.373" r="1.18233"/>
<circle cx="324.448" cy="106.081" r="1.18233"/>
<circle cx="329.478" cy="101.326" r="1.18233"/>
<circle cx="331.082" cy="100.757" r="1.18233"/>
<circle cx="334.168" cy="100.354" r="1.18233"/>
<circle cx="335.197" cy="100.002" r="1.18233"/>
<circle cx="340.545" cy="99.4536" r="1.18233"/>
<circle cx="341.132" cy="98.9441" r="1.18233"/>
<circle cx="341.481" cy="98.8635" r="1.18233"/>
<circle cx="341.697" cy="98.815" r="1.18233"/>
<circle cx="341.944" cy="98.7748" r="1.18233"/>
<circle cx="342.911" cy="98.6709" r="1.18233"/>
<circle cx="344.742" cy="98.43" r="1.18233"/>
<circle cx="347.941" cy="97.9966" r="1.18233"/>
<circle cx="348.99" cy="97.6315" r="1.18233"/>
<circle cx="355.45" cy="96.7195" r="1.18233"/>
<circle cx="359.421" cy="92.8693" r="1.18233"/>
<circle cx="360.151" cy="91.1353" r="1.18233"/>
<circle cx="360.727" cy="90.6529" r="1.18233"/>
<circle cx="361.612" cy="90.1142" r="1.18233"/>
<circle cx="365.448" cy="88.3722" r="1.18233"/>
<circle cx="366.374" cy="86.6124" r="1.18233"/>
<circle cx="367.289" cy="85.9302" r="1.18233"/>
<circle cx="370.488" cy="84.4108" r="1.18233"/>
<circle cx="370.941" cy="83.0628" r="1.18233"/>
<circle cx="372.073" cy="82.4776" r="1.18233"/>
<circle cx="372.309" cy="81.9716" r="1.18233"/>
<circle cx="376.66" cy="80.2765" r="1.18233"/>
<circle cx="378.707" cy="78.0646" r="1.18233"/>
<circle cx="379.242" cy="78.0267" r="1.18233"/>
<circle cx="381.001" cy="77.9935" r="1.18233"/>
<circle cx="382.462" cy="77.9466" r="1.18233"/>
<circle cx="384.21" cy="77.8997" r="1.18233"/>
<circle cx="384.941" cy="77.8633" r="1.18233"/>
<circle cx="385.599" cy="77.8431" r="1.18233"/>
<circle cx="388.685" cy="77.7886" r="1.18233"/>
<circle cx="392.151" cy="77.6919" r="1.18233"/>
<circle cx="393.632" cy="77.6188" r="1.18233"/>
<circle cx="395.103" cy="77.5749" r="1.18233"/>
<circle cx="396.862" cy="77.5271" r="1.18233"/>
<circle cx="398.868" cy="77.471" r="1.18233"/>
<circle cx="399.31" cy="77.4342" r="1.18233"/>
<circle cx="405.41" cy="77.3365" r="1.18233"/>
<circle cx="407.745" cy="77.2896" r="1.18233"/>
<circle cx="408.228" cy="77.28" r="1.18233"/>
<circle cx="410.543" cy="77.2703" r="1.18233"/>
<circle cx="417.898" cy="77.237" r="1.18233"/>
<circle cx="423.658" cy="77.1908" r="1.18233"/>
<circle cx="425.715" cy="77.162" r="1.18233"/>
<circle cx="428.266" cy="77.1454" r="1.18233"/>
<circle cx="429.778" cy="77.1761" r="1.18233"/>
<circle cx="432.452" cy="77.957" r="1.18233"/>
<circle cx="438.367" cy="79.5582" r="1.18233"/>
<circle cx="440.116" cy="80.9861" r="1.18233"/>
<circle cx="450.916" cy="83.3238" r="1.18233"/>
<circle cx="451.091" cy="85.3669" r="1.18233"/>
<circle cx="451.502" cy="85.4759" r="1.18233"/>
<circle cx="452.85" cy="85.803" r="1.18233"/>
<circle cx="453.015" cy="86.0842" r="1.18233"/>
<circle cx="455.946" cy="86.6613" r="1.18233"/>
<circle cx="457.088" cy="87.4187" r="1.18233"/>
<circle cx="457.808" cy="87.765" r="1.18233"/>
<circle cx="458.734" cy="88.0708" r="1.18233"/>
<circle cx="460.215" cy="88.5182" r="1.18233"/>
<circle cx="462.797" cy="89.2749" r="1.18233"/>
<circle cx="465.091" cy="90.1815" r="1.18233"/>
<circle cx="470.254" cy="91.5666" r="1.18233"/>
<circle cx="472.106" cy="92.8703" r="1.18233"/>
<circle cx="473.052" cy="93.3897" r="1.18233"/>
<circle cx="474.06" cy="93.7526" r="1.18233"/>
<circle cx="475.089" cy="94.1305" r="1.18233"/>
<circle cx="475.973" cy="94.4862" r="1.18233"/>
<circle cx="482.803" cy="95.9183" r="1.18233"/>
<circle cx="484.192" cy="98.0878" r="1.18233"/>
<circle cx="484.346" cy="98.5303" r="1.18233"/>
<circle cx="484.902" cy="98.7347" r="1.18233"/>
<circle cx="486.403" cy="99.3251" r="1.18233"/>
<circle cx="488.461" cy="100.348" r="1.18233"/>
<circle cx="489.572" cy="101.258" r="1.18233"/>
<circle cx="491.372" cy="102.094" r="1.18233"/>
<circle cx="491.896" cy="102.76" r="1.18233"/>
<circle cx="492.472" cy="103.076" r="1.18233"/>
<circle cx="493.748" cy="103.608" r="1.18233"/>
<circle cx="496.206" cy="104.679" r="1.18233"/>
<circle cx="497.122" cy="105.649" r="1.18233"/>
<circle cx="498.438" cy="106.29" r="1.18233"/>
<circle cx="499.385" cy="106.936" r="1.18233"/>
<circle cx="499.776" cy="107.32" r="1.18233"/>
<circle cx="501.432" cy="107.91" r="1.18233"/>
<circle cx="502.306" cy="108.636" r="1.18233"/>
<circle cx="502.81" cy="109.03" r="1.18233"/>
<circle cx="504.301" cy="109.603" r="1.18233"/>
<circle cx="505.711" cy="110.436" r="1.18233"/>
<circle cx="510.051" cy="112.086" r="1.18233"/>
</g>
<rect x="454.043" y="30.0904" width="56.6929" height="30.0904" fill="white"/>
<path d="M454.043,60.1808h 56.6929" fill="none" stroke="black"/>
<path d="M510.736,60.1808v -30.0904" fill="none" stroke="black"/>
<path d="M510.736,30.0904h -56.6929" fill="none" stroke="black"/>
<path d="M454.043,30.0904v 30.0904" fill="none" stroke="black"/>
<text xml:space="preserve" x="468.113" y="34.2877" fill="black" font-size="5.11002" font-family="Helvetica">Discrete States</text>
<path d="M456.169,33.0994h 9.92126" fill="none" stroke="black"/>
<g fill="black">
<rect x="459.948" y="31.9171" width="2.36467" height="2.36467"/>
</g>
<text xml:space="preserve" x="468.113" y="40.1994" fill="black" font-size="5.11002" font-family="Helvetica">FGM+CTM</text>
<path d="M456.169,39.1175h 9.92126" fill="none" stroke="black"/>
<g fill="#0000ff">
<circle cx="461.13" cy="39.1175" r="1.18233"/>
</g>
<text xml:space="preserve" x="468.113" y="46.4066" fill="black" font-size="5.11002" font-family="Helvetica">BSFGM</text>
<path d="M456.169,45.1356h 9.92126" fill="none" stroke="black"/>
<g fill="#ffff00">
<circle cx="461.13" cy="45.1356" r="1.18233"/>
</g>
<text xml:space="preserve" x="468.113" y="52.3183" fill="black" font-size="5.11002" font-family="Helvetica">HFB + Skyrme</text>
<path d="M456.169,51.1537h 9.92126" fill="none" stroke="black"/>
<g fill="#ff00ff">
<circle cx="461.13" cy="51.1537" r="1.18233"/>
</g>
<text xml:space="preserve" x="468.113" y="58.5255" fill="black" font-size="5.11002" font-family="Helvetica">HFB + Gogny</text>
<path d="M456.169,57.1718h 9.92126" fill="none" stroke="black"/>
<g fill="#00ffff">
<circle cx="461.13" cy="57.1718" r="1.18233"/>
</g>
<text xml:space="preserve" x="105.728" y="14.4836" fill="black" font-size="14.7667" font-family="Helvetica">Energy (MeV) versus No. of nuclear level density states</text></svg>
