<?xml version="1.0" standalone="no"?>
<svg width="567.429" height="301.404" viewBox="0 0 567.429 301.404" xmlns="http://www.w3.org/2000/svg" shape-rendering="crispEdges">
<title>
/home/rooitier/Documents/masters/plots/levels/sc/4_cumullvls_sc.svg
</title>
<desc>
Creator: ROOT Version 6.26/02
CreationDate: Wed Apr 20 00:26:56 2022</desc>
<defs>
</defs>
<rect x="0.5" y="0" width="566.929" height="300.904" fill="white"/>
<rect x="57.1929" y="30.0904" width="453.543" height="240.723" fill="white"/>
<rect x="57.1929" y="30.0904" width="453.543" height="240.723" fill="none" stroke="black"/>
<rect x="57.1929" y="30.0904" width="453.543" height="240.723" fill="white"/>
<rect x="57.1929" y="30.0904" width="453.543" height="240.723" fill="none" stroke="black"/>
<path d="M57.1929,270.814h 453.543" fill="none" stroke="black"/>
<path d="M118.029,263.592v 7.2217" fill="none" stroke="black"/>
<path d="M137.377,267.203v 3.61085" fill="none" stroke="black"/>
<path d="M156.725,267.203v 3.61085" fill="none" stroke="black"/>
<path d="M176.073,267.203v 3.61085" fill="none" stroke="black"/>
<path d="M195.42,267.203v 3.61085" fill="none" stroke="black"/>
<path d="M214.768,263.592v 7.2217" fill="none" stroke="black"/>
<path d="M234.116,267.203v 3.61085" fill="none" stroke="black"/>
<path d="M253.464,267.203v 3.61085" fill="none" stroke="black"/>
<path d="M272.812,267.203v 3.61085" fill="none" stroke="black"/>
<path d="M292.159,267.203v 3.61085" fill="none" stroke="black"/>
<path d="M311.507,263.592v 7.2217" fill="none" stroke="black"/>
<path d="M330.855,267.203v 3.61085" fill="none" stroke="black"/>
<path d="M350.203,267.203v 3.61085" fill="none" stroke="black"/>
<path d="M369.551,267.203v 3.61085" fill="none" stroke="black"/>
<path d="M388.899,267.203v 3.61085" fill="none" stroke="black"/>
<path d="M408.246,263.592v 7.2217" fill="none" stroke="black"/>
<path d="M427.594,267.203v 3.61085" fill="none" stroke="black"/>
<path d="M446.942,267.203v 3.61085" fill="none" stroke="black"/>
<path d="M466.29,267.203v 3.61085" fill="none" stroke="black"/>
<path d="M485.638,267.203v 3.61085" fill="none" stroke="black"/>
<path d="M504.986,263.592v 7.2217" fill="none" stroke="black"/>
<path d="M118.029,263.592v 7.2217" fill="none" stroke="black"/>
<path d="M98.6812,267.203v 3.61085" fill="none" stroke="black"/>
<path d="M79.3334,267.203v 3.61085" fill="none" stroke="black"/>
<path d="M59.9856,267.203v 3.61085" fill="none" stroke="black"/>
<path d="M504.986,263.592v 7.2217" fill="none" stroke="black"/>
<text xml:space="preserve" x="115.186" y="280.509" fill="black" font-size="10.1621" font-family="Helvetica">3</text>
<text xml:space="preserve" x="207.704" y="280.509" fill="black" font-size="10.1621" font-family="Helvetica">3.5</text>
<text xml:space="preserve" x="308.794" y="280.509" fill="black" font-size="10.1621" font-family="Helvetica">4</text>
<text xml:space="preserve" x="401.311" y="280.509" fill="black" font-size="10.1621" font-family="Helvetica">4.5</text>
<text xml:space="preserve" x="502.105" y="280.509" fill="black" font-size="10.1621" font-family="Helvetica">5</text>
<text xml:space="preserve" x="450.969" y="290.263" fill="black" font-size="10.1621" font-family="Helvetica">Energy (MeV)</text>
<path d="M57.1929,270.814v -240.723" fill="none" stroke="black"/>
<path d="M70.7992,270.813h -13.6063" fill="none" stroke="black"/>
<text xml:space="preserve" x="48.9757" y="274.597" fill="black" font-size="10.1621" font-family="Helvetica">1</text>
<path d="M63.9961,239.321h -6.80315" fill="none" stroke="black"/>
<path d="M63.9961,220.899h -6.80315" fill="none" stroke="black"/>
<path d="M63.9961,207.829h -6.80315" fill="none" stroke="black"/>
<path d="M63.9961,197.69h -6.80315" fill="none" stroke="black"/>
<path d="M63.9961,189.407h -6.80315" fill="none" stroke="black"/>
<path d="M63.9961,182.403h -6.80315" fill="none" stroke="black"/>
<path d="M63.9961,176.336h -6.80315" fill="none" stroke="black"/>
<path d="M63.9961,170.985h -6.80315" fill="none" stroke="black"/>
<path d="M70.7992,166.198h -13.6063" fill="none" stroke="black"/>
<text xml:space="preserve" x="41.8817" y="169.665" fill="black" font-size="10.1621" font-family="Helvetica">10</text>
<path d="M63.9961,134.706h -6.80315" fill="none" stroke="black"/>
<path d="M63.9961,116.284h -6.80315" fill="none" stroke="black"/>
<path d="M63.9961,103.213h -6.80315" fill="none" stroke="black"/>
<path d="M63.9961,93.0751h -6.80315" fill="none" stroke="black"/>
<path d="M63.9961,84.7915h -6.80315" fill="none" stroke="black"/>
<path d="M63.9961,77.7879h -6.80315" fill="none" stroke="black"/>
<path d="M63.9961,71.721h -6.80315" fill="none" stroke="black"/>
<path d="M63.9961,66.3697h -6.80315" fill="none" stroke="black"/>
<path d="M70.7992,61.5828h -13.6063" fill="none" stroke="black"/>
<text xml:space="preserve" x="48.9757" y="61.7769" fill="black" font-size="6.94137" font-family="Helvetica">2</text>
<text xml:space="preserve" x="38.3347" y="65.9151" fill="black" font-size="10.1621" font-family="Helvetica">10</text>
<path d="M63.9961,30.0904h -6.80315" fill="none" stroke="black"/>
<g transform="rotate(-90,25.6246,175.577)">
<text xml:space="preserve" x="25.6246" y="175.577" fill="black" font-size="10.1621" font-family="Helvetica">No. of nuclear level density states</text>
</g>
<path d="M129.348,192.315l 21.1859, -13.6301l 8.70652, -4.81324l 0.831957, -0.444306l 3.56, -1.85278l 12.2278, -5.99007l 7.565, -3.45562l 20.0057, -8.37902l 21.6115, -8.08624l 3.13435, -1.10538l 0.464348, -0.163371l 1.56717, -0.544995l 5.88174,
 -2.01599l 12.9243, -4.26116l 3.67609, -1.17278l 5.3787, -1.68953l 1.39304, -0.431878l 1.335, -0.412203l 6.50087, -1.97897l 10.622, -3.14657l 3.5987, -1.03988l 0.580435, -0.167144l 0.851304, -0.245709l 0.696522, -0.196384l 3.09565, -0.882793l
 3.34717, -0.943543l 3.1537, -0.879116l 3.94696, -1.09273l 3.0763, -0.842122l 11.8409, -3.17692l 4.29522, -1.12942l 2.61196, -0.681204l 17.6646, -4.49379l 9.40304, -2.32053l 2.47652, -0.603349l 24.0493, -5.708l 1.31565, -0.304031l 9.55783, -2.19337l
 5.03043, -1.13943l 3.69543, -0.831719l 3.85022, -0.860277l 12.1891, -2.68968l 4.52739, -0.985665l 0.696522, -0.150639l 8.9, -1.91782l 8.51304, -1.81121l 8.76457, -1.84207l 2.45717, -0.513231l 4.25652, -0.883824l 5.68826, -1.17433l 12.4987, -2.55111l
 7.00391, -1.41376l 3.44391, -0.690357l 10.0415, -1.99928l 10.2737, -2.02228l 9.67391, -1.88567l 4.58543, -0.886762l 1.16521, -0.223848" fill="none" stroke="black"/>
<g fill="black">
<rect x="128.165" y="191.133" width="2.36467" height="2.36467"/>
<rect x="149.351" y="177.503" width="2.36467" height="2.36467"/>
<rect x="158.058" y="172.689" width="2.36467" height="2.36467"/>
<rect x="158.89" y="172.245" width="2.36467" height="2.36467"/>
<rect x="162.45" y="170.392" width="2.36467" height="2.36467"/>
<rect x="174.677" y="164.402" width="2.36467" height="2.36467"/>
<rect x="182.242" y="160.946" width="2.36467" height="2.36467"/>
<rect x="202.248" y="152.567" width="2.36467" height="2.36467"/>
<rect x="223.86" y="144.481" width="2.36467" height="2.36467"/>
<rect x="226.994" y="143.376" width="2.36467" height="2.36467"/>
<rect x="227.458" y="143.212" width="2.36467" height="2.36467"/>
<rect x="229.025" y="142.667" width="2.36467" height="2.36467"/>
<rect x="234.907" y="140.651" width="2.36467" height="2.36467"/>
<rect x="247.831" y="136.39" width="2.36467" height="2.36467"/>
<rect x="251.508" y="135.218" width="2.36467" height="2.36467"/>
<rect x="256.886" y="133.528" width="2.36467" height="2.36467"/>
<rect x="258.279" y="133.096" width="2.36467" height="2.36467"/>
<rect x="259.614" y="132.684" width="2.36467" height="2.36467"/>
<rect x="266.115" y="130.705" width="2.36467" height="2.36467"/>
<rect x="276.737" y="127.558" width="2.36467" height="2.36467"/>
<rect x="280.336" y="126.519" width="2.36467" height="2.36467"/>
<rect x="280.916" y="126.351" width="2.36467" height="2.36467"/>
<rect x="281.768" y="126.106" width="2.36467" height="2.36467"/>
<rect x="282.464" y="125.909" width="2.36467" height="2.36467"/>
<rect x="285.56" y="125.026" width="2.36467" height="2.36467"/>
<rect x="288.907" y="124.083" width="2.36467" height="2.36467"/>
<rect x="292.061" y="123.204" width="2.36467" height="2.36467"/>
<rect x="296.008" y="122.111" width="2.36467" height="2.36467"/>
<rect x="299.084" y="121.269" width="2.36467" height="2.36467"/>
<rect x="310.925" y="118.092" width="2.36467" height="2.36467"/>
<rect x="315.22" y="116.963" width="2.36467" height="2.36467"/>
<rect x="317.832" y="116.281" width="2.36467" height="2.36467"/>
<rect x="335.496" y="111.788" width="2.36467" height="2.36467"/>
<rect x="344.9" y="109.467" width="2.36467" height="2.36467"/>
<rect x="347.376" y="108.864" width="2.36467" height="2.36467"/>
<rect x="371.425" y="103.156" width="2.36467" height="2.36467"/>
<rect x="372.741" y="102.852" width="2.36467" height="2.36467"/>
<rect x="382.299" y="100.658" width="2.36467" height="2.36467"/>
<rect x="387.329" y="99.5189" width="2.36467" height="2.36467"/>
<rect x="391.025" y="98.6872" width="2.36467" height="2.36467"/>
<rect x="394.875" y="97.8269" width="2.36467" height="2.36467"/>
<rect x="407.064" y="95.1373" width="2.36467" height="2.36467"/>
<rect x="411.591" y="94.1516" width="2.36467" height="2.36467"/>
<rect x="412.288" y="94.0009" width="2.36467" height="2.36467"/>
<rect x="421.188" y="92.0831" width="2.36467" height="2.36467"/>
<rect x="429.701" y="90.2719" width="2.36467" height="2.36467"/>
<rect x="438.466" y="88.4298" width="2.36467" height="2.36467"/>
<rect x="440.923" y="87.9166" width="2.36467" height="2.36467"/>
<rect x="445.179" y="87.0328" width="2.36467" height="2.36467"/>
<rect x="450.868" y="85.8585" width="2.36467" height="2.36467"/>
<rect x="463.366" y="83.3074" width="2.36467" height="2.36467"/>
<rect x="470.37" y="81.8936" width="2.36467" height="2.36467"/>
<rect x="473.814" y="81.2032" width="2.36467" height="2.36467"/>
<rect x="483.856" y="79.2039" width="2.36467" height="2.36467"/>
<rect x="494.129" y="77.1817" width="2.36467" height="2.36467"/>
<rect x="503.803" y="75.296" width="2.36467" height="2.36467"/>
<rect x="508.389" y="74.4092" width="2.36467" height="2.36467"/>
</g>
<path d="M129.348,141.132l 21.1859, -3.15624l 8.70652, -1.29713l 0.831957, -0.12557l 3.56, -0.529251l 12.2278, -1.81989l 7.565, -1.12944l 20.0057, -2.97933l 21.6115, -3.22046l 3.13435, -0.466051l 0.464348, -0.0699696l 1.56717, -0.23371l 5.88174,
 -0.875081l 12.9243, -1.9262l 3.67609, -0.548144l 5.3787, -0.801434l 1.39304, -0.207137l 1.335, -0.199395l 6.50087, -0.967413l 10.622, -1.58348l 3.5987, -0.535397l 0.580435, -0.0857154l 0.851304, -0.128271l 0.696522, -0.102672l 3.09565, -0.461517l
 3.34717, -0.498604l 3.1537, -0.470264l 3.94696, -0.587859l 3.0763, -0.457999l 11.8409, -1.76419l 4.29522, -0.639342l 2.61196, -0.389448l 17.6646, -2.63118l 9.40304, -1.40093l 2.47652, -0.368779l 24.0493, -3.58266l 1.31565, -0.196401l 9.55783,
 -1.42438l 5.03043, -0.748958l 3.69543, -0.550411l 3.85022, -0.573299l 12.1891, -1.81636l 4.52739, -0.674464l 0.696522, -0.103198l 8.9, -1.32668l 8.51304, -1.26762l 8.76457, -1.30611l 2.45717, -0.365576l 4.25652, -0.634615l 5.68826, -0.847131l
 12.4987, -1.8624l 7.00391, -1.04286l 3.44391, -0.513431l 10.0415, -1.49577l 10.2737, -1.53093l 9.67391, -1.44057l 4.58543, -0.683583l 1.16521, -0.173532" fill="none" stroke="black"/>
<g fill="#0000ff">
<circle cx="129.348" cy="141.132" r="1.18233"/>
<circle cx="150.533" cy="137.976" r="1.18233"/>
<circle cx="159.24" cy="136.679" r="1.18233"/>
<circle cx="160.072" cy="136.553" r="1.18233"/>
<circle cx="163.632" cy="136.024" r="1.18233"/>
<circle cx="175.86" cy="134.204" r="1.18233"/>
<circle cx="183.425" cy="133.075" r="1.18233"/>
<circle cx="203.43" cy="130.095" r="1.18233"/>
<circle cx="225.042" cy="126.875" r="1.18233"/>
<circle cx="228.176" cy="126.409" r="1.18233"/>
<circle cx="228.641" cy="126.339" r="1.18233"/>
<circle cx="230.208" cy="126.105" r="1.18233"/>
<circle cx="236.089" cy="125.23" r="1.18233"/>
<circle cx="249.014" cy="123.304" r="1.18233"/>
<circle cx="252.69" cy="122.756" r="1.18233"/>
<circle cx="258.069" cy="121.954" r="1.18233"/>
<circle cx="259.462" cy="121.747" r="1.18233"/>
<circle cx="260.797" cy="121.548" r="1.18233"/>
<circle cx="267.298" cy="120.58" r="1.18233"/>
<circle cx="277.919" cy="118.997" r="1.18233"/>
<circle cx="281.518" cy="118.462" r="1.18233"/>
<circle cx="282.099" cy="118.376" r="1.18233"/>
<circle cx="282.95" cy="118.248" r="1.18233"/>
<circle cx="283.646" cy="118.145" r="1.18233"/>
<circle cx="286.742" cy="117.683" r="1.18233"/>
<circle cx="290.089" cy="117.185" r="1.18233"/>
<circle cx="293.243" cy="116.715" r="1.18233"/>
<circle cx="297.19" cy="116.127" r="1.18233"/>
<circle cx="300.266" cy="115.669" r="1.18233"/>
<circle cx="312.107" cy="113.905" r="1.18233"/>
<circle cx="316.402" cy="113.265" r="1.18233"/>
<circle cx="319.014" cy="112.876" r="1.18233"/>
<circle cx="336.679" cy="110.245" r="1.18233"/>
<circle cx="346.082" cy="108.844" r="1.18233"/>
<circle cx="348.558" cy="108.475" r="1.18233"/>
<circle cx="372.608" cy="104.892" r="1.18233"/>
<circle cx="373.923" cy="104.696" r="1.18233"/>
<circle cx="383.481" cy="103.271" r="1.18233"/>
<circle cx="388.512" cy="102.522" r="1.18233"/>
<circle cx="392.207" cy="101.972" r="1.18233"/>
<circle cx="396.057" cy="101.399" r="1.18233"/>
<circle cx="408.246" cy="99.5824" r="1.18233"/>
<circle cx="412.774" cy="98.9079" r="1.18233"/>
<circle cx="413.47" cy="98.8047" r="1.18233"/>
<circle cx="422.37" cy="97.478" r="1.18233"/>
<circle cx="430.883" cy="96.2104" r="1.18233"/>
<circle cx="439.648" cy="94.9043" r="1.18233"/>
<circle cx="442.105" cy="94.5387" r="1.18233"/>
<circle cx="446.362" cy="93.9041" r="1.18233"/>
<circle cx="452.05" cy="93.057" r="1.18233"/>
<circle cx="464.549" cy="91.1946" r="1.18233"/>
<circle cx="471.553" cy="90.1517" r="1.18233"/>
<circle cx="474.996" cy="89.6383" r="1.18233"/>
<circle cx="485.038" cy="88.1425" r="1.18233"/>
<circle cx="495.312" cy="86.6116" r="1.18233"/>
<circle cx="504.986" cy="85.171" r="1.18233"/>
<circle cx="509.571" cy="84.4874" r="1.18233"/>
</g>
<path d="M129.348,150.062l 21.1859, -5.2124l 8.70652, -2.12223l 0.831957, -0.202824l 3.56, -0.865943l 12.2278, -2.95424l 7.565, -1.82105l 20.0057, -4.429l 21.6115, -4.71467l 3.13435, -0.680844l 0.464348, -0.0997199l 1.56717, -0.339701l 5.88174,
 -1.27114l 12.9243, -2.78072l 3.67609, -0.786186l 5.3787, -1.14935l 1.39304, -0.29734l 1.335, -0.285536l 6.50087, -1.38381l 10.622, -2.25258l 3.5987, -0.759082l 0.580435, -0.122311l 0.851304, -0.181367l 0.696522, -0.145166l 3.09565, -0.65194l
 3.34717, -0.703047l 3.1537, -0.662635l 3.94696, -0.828477l 3.0763, -0.642761l 11.8409, -2.47083l 4.29522, -0.891393l 2.61196, -0.542399l 17.6646, -3.64767l 9.40304, -1.93017l 2.47652, -0.506288l 24.0493, -4.89246l 1.31565, -0.266712l 9.55783,
 -1.92891l 5.03043, -1.01192l 3.69543, -0.741701l 3.85022, -0.77162l 12.1891, -2.43527l 4.52739, -0.900851l 0.696522, -0.138669l 8.9, -1.766l 8.51304, -1.68235l 8.76457, -1.72683l 2.45717, -0.482807l 4.25652, -0.834903l 5.68826, -1.11357l 12.4987,
 -2.43876l 7.00391, -1.36088l 3.44391, -0.667666l 10.0415, -1.94184l 10.2737, -1.9783l 9.67391, -1.8557l 4.58543, -0.877263l 1.16521, -0.22216" fill="none" stroke="black"/>
<g fill="#ffff00">
<circle cx="129.348" cy="150.062" r="1.18233"/>
<circle cx="150.533" cy="144.85" r="1.18233"/>
<circle cx="159.24" cy="142.728" r="1.18233"/>
<circle cx="160.072" cy="142.525" r="1.18233"/>
<circle cx="163.632" cy="141.659" r="1.18233"/>
<circle cx="175.86" cy="138.705" r="1.18233"/>
<circle cx="183.425" cy="136.883" r="1.18233"/>
<circle cx="203.43" cy="132.454" r="1.18233"/>
<circle cx="225.042" cy="127.74" r="1.18233"/>
<circle cx="228.176" cy="127.059" r="1.18233"/>
<circle cx="228.641" cy="126.959" r="1.18233"/>
<circle cx="230.208" cy="126.62" r="1.18233"/>
<circle cx="236.089" cy="125.348" r="1.18233"/>
<circle cx="249.014" cy="122.568" r="1.18233"/>
<circle cx="252.69" cy="121.781" r="1.18233"/>
<circle cx="258.069" cy="120.632" r="1.18233"/>
<circle cx="259.462" cy="120.335" r="1.18233"/>
<circle cx="260.797" cy="120.049" r="1.18233"/>
<circle cx="267.298" cy="118.665" r="1.18233"/>
<circle cx="277.919" cy="116.413" r="1.18233"/>
<circle cx="281.518" cy="115.654" r="1.18233"/>
<circle cx="282.099" cy="115.531" r="1.18233"/>
<circle cx="282.95" cy="115.35" r="1.18233"/>
<circle cx="283.646" cy="115.205" r="1.18233"/>
<circle cx="286.742" cy="114.553" r="1.18233"/>
<circle cx="290.089" cy="113.85" r="1.18233"/>
<circle cx="293.243" cy="113.187" r="1.18233"/>
<circle cx="297.19" cy="112.359" r="1.18233"/>
<circle cx="300.266" cy="111.716" r="1.18233"/>
<circle cx="312.107" cy="109.245" r="1.18233"/>
<circle cx="316.402" cy="108.354" r="1.18233"/>
<circle cx="319.014" cy="107.811" r="1.18233"/>
<circle cx="336.679" cy="104.164" r="1.18233"/>
<circle cx="346.082" cy="102.234" r="1.18233"/>
<circle cx="348.558" cy="101.727" r="1.18233"/>
<circle cx="372.608" cy="96.8349" r="1.18233"/>
<circle cx="373.923" cy="96.5682" r="1.18233"/>
<circle cx="383.481" cy="94.6393" r="1.18233"/>
<circle cx="388.512" cy="93.6273" r="1.18233"/>
<circle cx="392.207" cy="92.8856" r="1.18233"/>
<circle cx="396.057" cy="92.114" r="1.18233"/>
<circle cx="408.246" cy="89.6787" r="1.18233"/>
<circle cx="412.774" cy="88.7779" r="1.18233"/>
<circle cx="413.47" cy="88.6392" r="1.18233"/>
<circle cx="422.37" cy="86.8732" r="1.18233"/>
<circle cx="430.883" cy="85.1909" r="1.18233"/>
<circle cx="439.648" cy="83.464" r="1.18233"/>
<circle cx="442.105" cy="82.9812" r="1.18233"/>
<circle cx="446.362" cy="82.1463" r="1.18233"/>
<circle cx="452.05" cy="81.0328" r="1.18233"/>
<circle cx="464.549" cy="78.594" r="1.18233"/>
<circle cx="471.553" cy="77.2331" r="1.18233"/>
<circle cx="474.996" cy="76.5655" r="1.18233"/>
<circle cx="485.038" cy="74.6236" r="1.18233"/>
<circle cx="495.312" cy="72.6453" r="1.18233"/>
<circle cx="504.986" cy="70.7896" r="1.18233"/>
<circle cx="509.571" cy="69.9124" r="1.18233"/>
</g>
<path d="M129.348,153.857l 21.1859, -5.61795l 8.70652, -4.84535l 0.831957, -1.5466l 3.56, -0.712145l 12.2278, -2.55678l 7.565, -2.40646l 20.0057, -3.32208l 21.6115, -5.0123l 3.13435, -4.16597l 0.464348, -0.69142l 1.56717, -0.389678l 5.88174,
 -1.43349l 12.9243, -3.61525l 3.67609, -3.19219l 5.3787, -1.74118l 1.39304, -1.30113l 1.335, -0.524957l 6.50087, -1.50699l 10.622, -2.59318l 3.5987, -1.88627l 0.580435, -0.554079l 0.851304, -0.190144l 0.696522, -0.205479l 3.09565, -0.502834l 3.34717,
 -0.854213l 3.1537, -0.862586l 3.94696, -0.942231l 3.0763, -0.931508l 11.8409, -1.97924l 4.29522, -2.14143l 2.61196, -1.09224l 17.6646, -3.37385l 9.40304, -4.50534l 2.47652, -1.97706l 24.0493, -4.4145l 1.31565, -3.97057l 9.55783, -1.6711l 5.03043,
 -2.24143l 3.69543, -1.34065l 3.85022, -1.159l 12.1891, -2.46444l 4.52739, -2.56865l 0.696522, -0.670759l 8.9, -0.979455l 8.51304, -1.77657l 8.76457, -1.76288l 2.45717, -1.14487l 4.25652, -0.68496l 5.68826, -1.0148l 12.4987, -1.85577l 7.00391,
 -1.98978l 3.44391, -1.06625l 10.0415, -1.37575l 10.2737, -2.07302l 9.67391, -2.0353l 4.58543, -1.45492l 1.16521, -0.120712" fill="none" stroke="black"/>
<g fill="#ff00ff">
<circle cx="129.348" cy="153.857" r="1.18233"/>
<circle cx="150.533" cy="148.239" r="1.18233"/>
<circle cx="159.24" cy="143.394" r="1.18233"/>
<circle cx="160.072" cy="141.847" r="1.18233"/>
<circle cx="163.632" cy="141.135" r="1.18233"/>
<circle cx="175.86" cy="138.578" r="1.18233"/>
<circle cx="183.425" cy="136.172" r="1.18233"/>
<circle cx="203.43" cy="132.85" r="1.18233"/>
<circle cx="225.042" cy="127.837" r="1.18233"/>
<circle cx="228.176" cy="123.671" r="1.18233"/>
<circle cx="228.641" cy="122.98" r="1.18233"/>
<circle cx="230.208" cy="122.59" r="1.18233"/>
<circle cx="236.089" cy="121.157" r="1.18233"/>
<circle cx="249.014" cy="117.542" r="1.18233"/>
<circle cx="252.69" cy="114.349" r="1.18233"/>
<circle cx="258.069" cy="112.608" r="1.18233"/>
<circle cx="259.462" cy="111.307" r="1.18233"/>
<circle cx="260.797" cy="110.782" r="1.18233"/>
<circle cx="267.298" cy="109.275" r="1.18233"/>
<circle cx="277.919" cy="106.682" r="1.18233"/>
<circle cx="281.518" cy="104.796" r="1.18233"/>
<circle cx="282.099" cy="104.242" r="1.18233"/>
<circle cx="282.95" cy="104.051" r="1.18233"/>
<circle cx="283.646" cy="103.846" r="1.18233"/>
<circle cx="286.742" cy="103.343" r="1.18233"/>
<circle cx="290.089" cy="102.489" r="1.18233"/>
<circle cx="293.243" cy="101.626" r="1.18233"/>
<circle cx="297.19" cy="100.684" r="1.18233"/>
<circle cx="300.266" cy="99.7526" r="1.18233"/>
<circle cx="312.107" cy="97.7733" r="1.18233"/>
<circle cx="316.402" cy="95.6319" r="1.18233"/>
<circle cx="319.014" cy="94.5397" r="1.18233"/>
<circle cx="336.679" cy="91.1658" r="1.18233"/>
<circle cx="346.082" cy="86.6605" r="1.18233"/>
<circle cx="348.558" cy="84.6834" r="1.18233"/>
<circle cx="372.608" cy="80.2689" r="1.18233"/>
<circle cx="373.923" cy="76.2983" r="1.18233"/>
<circle cx="383.481" cy="74.6273" r="1.18233"/>
<circle cx="388.512" cy="72.3858" r="1.18233"/>
<circle cx="392.207" cy="71.0452" r="1.18233"/>
<circle cx="396.057" cy="69.8862" r="1.18233"/>
<circle cx="408.246" cy="67.4217" r="1.18233"/>
<circle cx="412.774" cy="64.8531" r="1.18233"/>
<circle cx="413.47" cy="64.1823" r="1.18233"/>
<circle cx="422.37" cy="63.2029" r="1.18233"/>
<circle cx="430.883" cy="61.4263" r="1.18233"/>
<circle cx="439.648" cy="59.6634" r="1.18233"/>
<circle cx="442.105" cy="58.5185" r="1.18233"/>
<circle cx="446.362" cy="57.8336" r="1.18233"/>
<circle cx="452.05" cy="56.8188" r="1.18233"/>
<circle cx="464.549" cy="54.963" r="1.18233"/>
<circle cx="471.553" cy="52.9732" r="1.18233"/>
<circle cx="474.996" cy="51.907" r="1.18233"/>
<circle cx="485.038" cy="50.5312" r="1.18233"/>
<circle cx="495.312" cy="48.4582" r="1.18233"/>
<circle cx="504.986" cy="46.4229" r="1.18233"/>
<circle cx="509.571" cy="44.968" r="1.18233"/>
</g>
<path d="M129.348,163.235l 21.1859, -10.1264l 8.70652, -8.5812l 0.831957, -2.73849l 3.56, -1.25941l 12.2278, -4.52849l 7.565, -5.68101l 20.0057, -2.8171l 21.6115, -3.59547l 3.13435, -2.13768l 0.464348, -0.311641l 1.56717, -0.162633l 5.88174,
 -0.501164l 12.9243, -1.26667l 3.67609, -1.11819l 5.3787, -0.61005l 1.39304, -0.456485l 1.335, -0.184097l 6.50087, -0.528021l 10.622, -1.15418l 3.5987, -1.36154l 0.580435, -0.655098l 0.851304, -0.224309l 0.696522, -0.242932l 3.09565, -0.593367l
 3.34717, -1.00923l 3.1537, -1.01922l 3.94696, -1.11248l 3.0763, -1.10109l 11.8409, -2.33742l 4.29522, -2.52784l 2.61196, -1.08271l 17.6646, -2.64147l 9.40304, -0.644286l 2.47652, -0.283328l 24.0493, -0.631355l 1.31565, -0.604714l 9.55783, -0.417868l
 5.03043, -0.605027l 3.69543, -0.361125l 3.85022, -0.313045l 12.1891, -0.665262l 4.52739, -0.693057l 0.696522, -0.21629l 8.9, -0.39818l 8.51304, -1.56406l 8.76457, -2.50821l 2.45717, -1.62847l 4.25652, -0.975103l 5.68826, -1.44301l 12.4987, -2.6406l
 7.00391, -2.83104l 3.44391, -2.15213l 10.0415, -3.79211l 10.2737, -5.71236l 9.67391, -5.6093l 4.58543, -4.0096l 1.16521, -0.468086" fill="none" stroke="black"/>
<g fill="#00ffff">
<circle cx="129.348" cy="163.235" r="1.18233"/>
<circle cx="150.533" cy="153.108" r="1.18233"/>
<circle cx="159.24" cy="144.527" r="1.18233"/>
<circle cx="160.072" cy="141.789" r="1.18233"/>
<circle cx="163.632" cy="140.529" r="1.18233"/>
<circle cx="175.86" cy="136.001" r="1.18233"/>
<circle cx="183.425" cy="130.32" r="1.18233"/>
<circle cx="203.43" cy="127.503" r="1.18233"/>
<circle cx="225.042" cy="123.907" r="1.18233"/>
<circle cx="228.176" cy="121.77" r="1.18233"/>
<circle cx="228.641" cy="121.458" r="1.18233"/>
<circle cx="230.208" cy="121.295" r="1.18233"/>
<circle cx="236.089" cy="120.794" r="1.18233"/>
<circle cx="249.014" cy="119.527" r="1.18233"/>
<circle cx="252.69" cy="118.409" r="1.18233"/>
<circle cx="258.069" cy="117.799" r="1.18233"/>
<circle cx="259.462" cy="117.343" r="1.18233"/>
<circle cx="260.797" cy="117.159" r="1.18233"/>
<circle cx="267.298" cy="116.631" r="1.18233"/>
<circle cx="277.919" cy="115.476" r="1.18233"/>
<circle cx="281.518" cy="114.115" r="1.18233"/>
<circle cx="282.099" cy="113.46" r="1.18233"/>
<circle cx="282.95" cy="113.235" r="1.18233"/>
<circle cx="283.646" cy="112.993" r="1.18233"/>
<circle cx="286.742" cy="112.399" r="1.18233"/>
<circle cx="290.089" cy="111.39" r="1.18233"/>
<circle cx="293.243" cy="110.371" r="1.18233"/>
<circle cx="297.19" cy="109.258" r="1.18233"/>
<circle cx="300.266" cy="108.157" r="1.18233"/>
<circle cx="312.107" cy="105.82" r="1.18233"/>
<circle cx="316.402" cy="103.292" r="1.18233"/>
<circle cx="319.014" cy="102.209" r="1.18233"/>
<circle cx="336.679" cy="99.5677" r="1.18233"/>
<circle cx="346.082" cy="98.9234" r="1.18233"/>
<circle cx="348.558" cy="98.6401" r="1.18233"/>
<circle cx="372.608" cy="98.0087" r="1.18233"/>
<circle cx="373.923" cy="97.404" r="1.18233"/>
<circle cx="383.481" cy="96.9861" r="1.18233"/>
<circle cx="388.512" cy="96.3811" r="1.18233"/>
<circle cx="392.207" cy="96.02" r="1.18233"/>
<circle cx="396.057" cy="95.7069" r="1.18233"/>
<circle cx="408.246" cy="95.0417" r="1.18233"/>
<circle cx="412.774" cy="94.3486" r="1.18233"/>
<circle cx="413.47" cy="94.1323" r="1.18233"/>
<circle cx="422.37" cy="93.7342" r="1.18233"/>
<circle cx="430.883" cy="92.1701" r="1.18233"/>
<circle cx="439.648" cy="89.6619" r="1.18233"/>
<circle cx="442.105" cy="88.0334" r="1.18233"/>
<circle cx="446.362" cy="87.0583" r="1.18233"/>
<circle cx="452.05" cy="85.6153" r="1.18233"/>
<circle cx="464.549" cy="82.9747" r="1.18233"/>
<circle cx="471.553" cy="80.1436" r="1.18233"/>
<circle cx="474.996" cy="77.9915" r="1.18233"/>
<circle cx="485.038" cy="74.1994" r="1.18233"/>
<circle cx="495.312" cy="68.487" r="1.18233"/>
<circle cx="504.986" cy="62.8777" r="1.18233"/>
<circle cx="509.571" cy="58.8681" r="1.18233"/>
</g>
<rect x="454.043" y="30.0904" width="56.6929" height="30.0904" fill="white"/>
<path d="M454.043,60.1808h 56.6929" fill="none" stroke="black"/>
<path d="M510.736,60.1808v -30.0904" fill="none" stroke="black"/>
<path d="M510.736,30.0904h -56.6929" fill="none" stroke="black"/>
<path d="M454.043,30.0904v 30.0904" fill="none" stroke="black"/>
<text xml:space="preserve" x="468.113" y="34.2877" fill="black" font-size="5.11002" font-family="Helvetica">Discrete States</text>
<path d="M456.169,33.0994h 9.92126" fill="none" stroke="black"/>
<g fill="black">
<rect x="459.948" y="31.9171" width="2.36467" height="2.36467"/>
</g>
<text xml:space="preserve" x="468.113" y="40.1994" fill="black" font-size="5.11002" font-family="Helvetica">FGM+CTM</text>
<path d="M456.169,39.1175h 9.92126" fill="none" stroke="black"/>
<g fill="#0000ff">
<circle cx="461.13" cy="39.1175" r="1.18233"/>
</g>
<text xml:space="preserve" x="468.113" y="46.4066" fill="black" font-size="5.11002" font-family="Helvetica">BSFGM</text>
<path d="M456.169,45.1356h 9.92126" fill="none" stroke="black"/>
<g fill="#ffff00">
<circle cx="461.13" cy="45.1356" r="1.18233"/>
</g>
<text xml:space="preserve" x="468.113" y="52.3183" fill="black" font-size="5.11002" font-family="Helvetica">HFB + Skyrme</text>
<path d="M456.169,51.1537h 9.92126" fill="none" stroke="black"/>
<g fill="#ff00ff">
<circle cx="461.13" cy="51.1537" r="1.18233"/>
</g>
<text xml:space="preserve" x="468.113" y="58.5255" fill="black" font-size="5.11002" font-family="Helvetica">HFB + Gogny</text>
<path d="M456.169,57.1718h 9.92126" fill="none" stroke="black"/>
<g fill="#00ffff">
<circle cx="461.13" cy="57.1718" r="1.18233"/>
</g>
<text xml:space="preserve" x="105.728" y="14.4836" fill="black" font-size="14.7667" font-family="Helvetica">Energy (MeV) versus No. of nuclear level density states</text></svg>
