<?xml version="1.0" standalone="no"?>
<svg width="567.429" height="313.14" viewBox="0 0 567.429 313.14" xmlns="http://www.w3.org/2000/svg" shape-rendering="crispEdges">
<title>
/home/rooitier/Documents/masters/plots/cross/cs_ld1_23_51.svg
</title>
<desc>
Creator: ROOT Version 6.24/06
CreationDate: Thu Sep 30 11:14:15 2021</desc>
<defs>
</defs>
<rect x="0.5" y="0" width="566.929" height="312.64" fill="white"/>
<rect x="57.1929" y="31.264" width="453.543" height="250.112" fill="white"/>
<rect x="57.1929" y="31.264" width="453.543" height="250.112" fill="none" stroke="black"/>
<rect x="57.1929" y="31.264" width="453.543" height="250.112" fill="white"/>
<rect x="57.1929" y="31.264" width="453.543" height="250.112" fill="none" stroke="black"/>
<path d="M57.1929,281.376h 453.543" fill="none" stroke="black"/>
<path d="M116.321,273.873v 7.50337" fill="none" stroke="black"/>
<path d="M129.406,277.625v 3.75168" fill="none" stroke="black"/>
<path d="M142.491,277.625v 3.75168" fill="none" stroke="black"/>
<path d="M155.576,277.625v 3.75168" fill="none" stroke="black"/>
<path d="M168.661,277.625v 3.75168" fill="none" stroke="black"/>
<path d="M181.746,273.873v 7.50337" fill="none" stroke="black"/>
<path d="M194.831,277.625v 3.75168" fill="none" stroke="black"/>
<path d="M207.916,277.625v 3.75168" fill="none" stroke="black"/>
<path d="M221.001,277.625v 3.75168" fill="none" stroke="black"/>
<path d="M234.086,277.625v 3.75168" fill="none" stroke="black"/>
<path d="M247.171,273.873v 7.50337" fill="none" stroke="black"/>
<path d="M260.255,277.625v 3.75168" fill="none" stroke="black"/>
<path d="M273.34,277.625v 3.75168" fill="none" stroke="black"/>
<path d="M286.425,277.625v 3.75168" fill="none" stroke="black"/>
<path d="M299.51,277.625v 3.75168" fill="none" stroke="black"/>
<path d="M312.595,273.873v 7.50337" fill="none" stroke="black"/>
<path d="M325.68,277.625v 3.75168" fill="none" stroke="black"/>
<path d="M338.765,277.625v 3.75168" fill="none" stroke="black"/>
<path d="M351.85,277.625v 3.75168" fill="none" stroke="black"/>
<path d="M364.935,277.625v 3.75168" fill="none" stroke="black"/>
<path d="M378.02,273.873v 7.50337" fill="none" stroke="black"/>
<path d="M391.105,277.625v 3.75168" fill="none" stroke="black"/>
<path d="M404.19,277.625v 3.75168" fill="none" stroke="black"/>
<path d="M417.275,277.625v 3.75168" fill="none" stroke="black"/>
<path d="M430.36,277.625v 3.75168" fill="none" stroke="black"/>
<path d="M443.445,273.873v 7.50337" fill="none" stroke="black"/>
<path d="M456.529,277.625v 3.75168" fill="none" stroke="black"/>
<path d="M469.614,277.625v 3.75168" fill="none" stroke="black"/>
<path d="M482.699,277.625v 3.75168" fill="none" stroke="black"/>
<path d="M495.784,277.625v 3.75168" fill="none" stroke="black"/>
<path d="M508.869,273.873v 7.50337" fill="none" stroke="black"/>
<path d="M116.321,273.873v 7.50337" fill="none" stroke="black"/>
<path d="M103.236,277.625v 3.75168" fill="none" stroke="black"/>
<path d="M90.1513,277.625v 3.75168" fill="none" stroke="black"/>
<path d="M77.0664,277.625v 3.75168" fill="none" stroke="black"/>
<path d="M63.9815,277.625v 3.75168" fill="none" stroke="black"/>
<path d="M508.869,273.873v 7.50337" fill="none" stroke="black"/>
<text xml:space="preserve" x="114.439" y="291.449" fill="black" font-size="10.5389" font-family="Helvetica">1</text>
<text xml:space="preserve" x="174.633" y="291.449" fill="black" font-size="10.5389" font-family="Helvetica">1.5</text>
<text xml:space="preserve" x="244.347" y="291.449" fill="black" font-size="10.5389" font-family="Helvetica">2</text>
<text xml:space="preserve" x="305.462" y="291.449" fill="black" font-size="10.5389" font-family="Helvetica">2.5</text>
<text xml:space="preserve" x="375.177" y="291.449" fill="black" font-size="10.5389" font-family="Helvetica">3</text>
<text xml:space="preserve" x="436.292" y="291.449" fill="black" font-size="10.5389" font-family="Helvetica">3.5</text>
<text xml:space="preserve" x="506.007" y="291.449" fill="black" font-size="10.5389" font-family="Helvetica">4</text>
<text xml:space="preserve" x="448.577" y="301.584" fill="black" font-size="10.5389" font-family="Helvetica">Energy (MeV)</text>
<path d="M57.1929,281.376v -250.112" fill="none" stroke="black"/>
<path d="M70.7992,281.376h -13.6063" fill="none" stroke="black"/>
<text xml:space="preserve" x="49.0237" y="281.315" fill="black" font-size="7.1926" font-family="Helvetica">5</text>
<text xml:space="preserve" x="45.3384" y="281.315" fill="black" font-size="7.1926" font-family="Times">&#8722;</text>
<text xml:space="preserve" x="34.2823" y="285.921" fill="black" font-size="10.5389" font-family="Helvetica">10</text>
<path d="M63.9961,274.532h -6.80315" fill="none" stroke="black"/>
<path d="M63.9961,270.528h -6.80315" fill="none" stroke="black"/>
<path d="M63.9961,267.687h -6.80315" fill="none" stroke="black"/>
<path d="M63.9961,265.483h -6.80315" fill="none" stroke="black"/>
<path d="M63.9961,263.683h -6.80315" fill="none" stroke="black"/>
<path d="M63.9961,262.161h -6.80315" fill="none" stroke="black"/>
<path d="M63.9961,260.842h -6.80315" fill="none" stroke="black"/>
<path d="M63.9961,259.679h -6.80315" fill="none" stroke="black"/>
<path d="M70.7992,258.639h -13.6063" fill="none" stroke="black"/>
<text xml:space="preserve" x="49.0237" y="258.896" fill="black" font-size="7.1926" font-family="Helvetica">4</text>
<text xml:space="preserve" x="45.3384" y="258.896" fill="black" font-size="7.1926" font-family="Times">&#8722;</text>
<text xml:space="preserve" x="34.2823" y="263.195" fill="black" font-size="10.5389" font-family="Helvetica">10</text>
<path d="M63.9961,251.794h -6.80315" fill="none" stroke="black"/>
<path d="M63.9961,247.79h -6.80315" fill="none" stroke="black"/>
<path d="M63.9961,244.949h -6.80315" fill="none" stroke="black"/>
<path d="M63.9961,242.746h -6.80315" fill="none" stroke="black"/>
<path d="M63.9961,240.946h -6.80315" fill="none" stroke="black"/>
<path d="M63.9961,239.423h -6.80315" fill="none" stroke="black"/>
<path d="M63.9961,238.105h -6.80315" fill="none" stroke="black"/>
<path d="M63.9961,236.942h -6.80315" fill="none" stroke="black"/>
<path d="M70.7992,235.901h -13.6063" fill="none" stroke="black"/>
<text xml:space="preserve" x="49.0237" y="235.862" fill="black" font-size="7.1926" font-family="Helvetica">3</text>
<text xml:space="preserve" x="45.3384" y="235.862" fill="black" font-size="7.1926" font-family="Times">&#8722;</text>
<text xml:space="preserve" x="34.2823" y="240.469" fill="black" font-size="10.5389" font-family="Helvetica">10</text>
<path d="M63.9961,229.057h -6.80315" fill="none" stroke="black"/>
<path d="M63.9961,225.053h -6.80315" fill="none" stroke="black"/>
<path d="M63.9961,222.212h -6.80315" fill="none" stroke="black"/>
<path d="M63.9961,220.008h -6.80315" fill="none" stroke="black"/>
<path d="M63.9961,218.208h -6.80315" fill="none" stroke="black"/>
<path d="M63.9961,216.686h -6.80315" fill="none" stroke="black"/>
<path d="M63.9961,215.367h -6.80315" fill="none" stroke="black"/>
<path d="M63.9961,214.204h -6.80315" fill="none" stroke="black"/>
<path d="M70.7992,213.164h -13.6063" fill="none" stroke="black"/>
<text xml:space="preserve" x="49.0237" y="213.443" fill="black" font-size="7.1926" font-family="Helvetica">2</text>
<text xml:space="preserve" x="45.3384" y="213.443" fill="black" font-size="7.1926" font-family="Times">&#8722;</text>
<text xml:space="preserve" x="34.2823" y="217.743" fill="black" font-size="10.5389" font-family="Helvetica">10</text>
<path d="M63.9961,206.319h -6.80315" fill="none" stroke="black"/>
<path d="M63.9961,202.315h -6.80315" fill="none" stroke="black"/>
<path d="M63.9961,199.474h -6.80315" fill="none" stroke="black"/>
<path d="M63.9961,197.271h -6.80315" fill="none" stroke="black"/>
<path d="M63.9961,195.471h -6.80315" fill="none" stroke="black"/>
<path d="M63.9961,193.948h -6.80315" fill="none" stroke="black"/>
<path d="M63.9961,192.63h -6.80315" fill="none" stroke="black"/>
<path d="M63.9961,191.467h -6.80315" fill="none" stroke="black"/>
<path d="M70.7992,190.426h -13.6063" fill="none" stroke="black"/>
<text xml:space="preserve" x="50.2522" y="190.717" fill="black" font-size="7.1926" font-family="Helvetica">1</text>
<text xml:space="preserve" x="46.5668" y="190.717" fill="black" font-size="7.1926" font-family="Times">&#8722;</text>
<text xml:space="preserve" x="35.5108" y="195.016" fill="black" font-size="10.5389" font-family="Helvetica">10</text>
<path d="M63.9961,183.582h -6.80315" fill="none" stroke="black"/>
<path d="M63.9961,179.578h -6.80315" fill="none" stroke="black"/>
<path d="M63.9961,176.737h -6.80315" fill="none" stroke="black"/>
<path d="M63.9961,174.533h -6.80315" fill="none" stroke="black"/>
<path d="M63.9961,172.733h -6.80315" fill="none" stroke="black"/>
<path d="M63.9961,171.211h -6.80315" fill="none" stroke="black"/>
<path d="M63.9961,169.892h -6.80315" fill="none" stroke="black"/>
<path d="M63.9961,168.729h -6.80315" fill="none" stroke="black"/>
<path d="M70.7992,167.689h -13.6063" fill="none" stroke="black"/>
<text xml:space="preserve" x="49.0237" y="171.676" fill="black" font-size="10.5389" font-family="Helvetica">1</text>
<path d="M63.9961,160.844h -6.80315" fill="none" stroke="black"/>
<path d="M63.9961,156.84h -6.80315" fill="none" stroke="black"/>
<path d="M63.9961,154h -6.80315" fill="none" stroke="black"/>
<path d="M63.9961,151.796h -6.80315" fill="none" stroke="black"/>
<path d="M63.9961,149.996h -6.80315" fill="none" stroke="black"/>
<path d="M63.9961,148.473h -6.80315" fill="none" stroke="black"/>
<path d="M63.9961,147.155h -6.80315" fill="none" stroke="black"/>
<path d="M63.9961,145.992h -6.80315" fill="none" stroke="black"/>
<path d="M70.7992,144.951h -13.6063" fill="none" stroke="black"/>
<text xml:space="preserve" x="41.653" y="148.335" fill="black" font-size="10.5389" font-family="Helvetica">10</text>
<path d="M63.9961,138.107h -6.80315" fill="none" stroke="black"/>
<path d="M63.9961,134.103h -6.80315" fill="none" stroke="black"/>
<path d="M63.9961,131.262h -6.80315" fill="none" stroke="black"/>
<path d="M63.9961,129.059h -6.80315" fill="none" stroke="black"/>
<path d="M63.9961,127.258h -6.80315" fill="none" stroke="black"/>
<path d="M63.9961,125.736h -6.80315" fill="none" stroke="black"/>
<path d="M63.9961,124.417h -6.80315" fill="none" stroke="black"/>
<path d="M63.9961,123.254h -6.80315" fill="none" stroke="black"/>
<path d="M70.7992,122.214h -13.6063" fill="none" stroke="black"/>
<text xml:space="preserve" x="49.0237" y="122.231" fill="black" font-size="7.1926" font-family="Helvetica">2</text>
<text xml:space="preserve" x="37.9677" y="126.53" fill="black" font-size="10.5389" font-family="Helvetica">10</text>
<path d="M63.9961,115.369h -6.80315" fill="none" stroke="black"/>
<path d="M63.9961,111.365h -6.80315" fill="none" stroke="black"/>
<path d="M63.9961,108.525h -6.80315" fill="none" stroke="black"/>
<path d="M63.9961,106.321h -6.80315" fill="none" stroke="black"/>
<path d="M63.9961,104.521h -6.80315" fill="none" stroke="black"/>
<path d="M63.9961,102.999h -6.80315" fill="none" stroke="black"/>
<path d="M63.9961,101.68h -6.80315" fill="none" stroke="black"/>
<path d="M63.9961,100.517h -6.80315" fill="none" stroke="black"/>
<path d="M70.7992,99.4764h -13.6063" fill="none" stroke="black"/>
<text xml:space="preserve" x="49.0237" y="99.1972" fill="black" font-size="7.1926" font-family="Helvetica">3</text>
<text xml:space="preserve" x="37.9677" y="103.804" fill="black" font-size="10.5389" font-family="Helvetica">10</text>
<path d="M63.9961,92.6318h -6.80315" fill="none" stroke="black"/>
<path d="M63.9961,88.6279h -6.80315" fill="none" stroke="black"/>
<path d="M63.9961,85.7871h -6.80315" fill="none" stroke="black"/>
<path d="M63.9961,83.5836h -6.80315" fill="none" stroke="black"/>
<path d="M63.9961,81.7832h -6.80315" fill="none" stroke="black"/>
<path d="M63.9961,80.261h -6.80315" fill="none" stroke="black"/>
<path d="M63.9961,78.9424h -6.80315" fill="none" stroke="black"/>
<path d="M63.9961,77.7794h -6.80315" fill="none" stroke="black"/>
<path d="M70.7992,76.739h -13.6063" fill="none" stroke="black"/>
<text xml:space="preserve" x="49.0237" y="76.778" fill="black" font-size="7.1926" font-family="Helvetica">4</text>
<text xml:space="preserve" x="37.9677" y="81.0776" fill="black" font-size="10.5389" font-family="Helvetica">10</text>
<path d="M63.9961,69.8943h -6.80315" fill="none" stroke="black"/>
<path d="M63.9961,65.8904h -6.80315" fill="none" stroke="black"/>
<path d="M63.9961,63.0496h -6.80315" fill="none" stroke="black"/>
<path d="M63.9961,60.8461h -6.80315" fill="none" stroke="black"/>
<path d="M63.9961,59.0458h -6.80315" fill="none" stroke="black"/>
<path d="M63.9961,57.5236h -6.80315" fill="none" stroke="black"/>
<path d="M63.9961,56.205h -6.80315" fill="none" stroke="black"/>
<path d="M63.9961,55.0419h -6.80315" fill="none" stroke="black"/>
<path d="M70.7992,54.0015h -13.6063" fill="none" stroke="black"/>
<text xml:space="preserve" x="49.0237" y="53.7446" fill="black" font-size="7.1926" font-family="Helvetica">5</text>
<text xml:space="preserve" x="37.9677" y="58.3513" fill="black" font-size="10.5389" font-family="Helvetica">10</text>
<path d="M63.9961,47.1568h -6.80315" fill="none" stroke="black"/>
<path d="M63.9961,43.153h -6.80315" fill="none" stroke="black"/>
<path d="M63.9961,40.3122h -6.80315" fill="none" stroke="black"/>
<path d="M63.9961,38.1087h -6.80315" fill="none" stroke="black"/>
<path d="M63.9961,36.3083h -6.80315" fill="none" stroke="black"/>
<path d="M63.9961,34.7861h -6.80315" fill="none" stroke="black"/>
<path d="M63.9961,33.4675h -6.80315" fill="none" stroke="black"/>
<path d="M63.9961,32.3044h -6.80315" fill="none" stroke="black"/>
<path d="M70.7992,31.264h -13.6063" fill="none" stroke="black"/>
<text xml:space="preserve" x="49.0237" y="31.0183" fill="black" font-size="7.1926" font-family="Helvetica">6</text>
<text xml:space="preserve" x="37.9677" y="35.625" fill="black" font-size="10.5389" font-family="Helvetica">10</text>
<g transform="rotate(-90,21.6907,107.489)">
<text xml:space="preserve" x="21.6907" y="107.489" fill="black" font-size="10.5389" font-family="Helvetica">Cross-section (b)</text>
</g>
<path d="M446.061,236.037v -0.105718" fill="none" stroke="black"/>
<path d="M445.447,235.931h 1.22845" fill="none" stroke="black"/>
<path d="M446.061,238.494v 0.314559" fill="none" stroke="black"/>
<path d="M445.447,238.808h 1.22845" fill="none" stroke="black"/>
<path d="M449.987,244.571v -1.36026" fill="none" stroke="black"/>
<path d="M449.373,243.211h 1.22845" fill="none" stroke="black"/>
<path d="M449.987,247.028v 2.28979" fill="none" stroke="black"/>
<path d="M449.373,249.318h 1.22845" fill="none" stroke="black"/>
<path d="M452.604,235.836v 0.0456938" fill="none" stroke="black"/>
<path d="M451.99,235.882h 1.22845" fill="none" stroke="black"/>
<path d="M461.763,236.348v -0.00199953" fill="none" stroke="black"/>
<path d="M461.149,236.346h 1.22845" fill="none" stroke="black"/>
<path d="M461.763,238.804v 0.17744" fill="none" stroke="black"/>
<path d="M461.149,238.982h 1.22845" fill="none" stroke="black"/>
<path d="M466.997,234.913v -0.11288" fill="none" stroke="black"/>
<path d="M466.383,234.8h 1.22845" fill="none" stroke="black"/>
<path d="M466.997,237.37v 0.324151" fill="none" stroke="black"/>
<path d="M466.383,237.694h 1.22845" fill="none" stroke="black"/>
<path d="M476.157,234.802v -0.0110374" fill="none" stroke="black"/>
<path d="M475.543,234.791h 1.22845" fill="none" stroke="black"/>
<path d="M476.157,237.259v 0.189256" fill="none" stroke="black"/>
<path d="M475.543,237.448h 1.22845" fill="none" stroke="black"/>
<path d="M481.391,240.765v 0.052703" fill="none" stroke="black"/>
<path d="M480.777,240.818h 1.22845" fill="none" stroke="black"/>
<path d="M482.699,234.093v 0.0570046" fill="none" stroke="black"/>
<path d="M482.085,234.15h 1.22845" fill="none" stroke="black"/>
<path d="M486.625,236.669v -0.219225" fill="none" stroke="black"/>
<path d="M486.011,236.449h 1.22845" fill="none" stroke="black"/>
<path d="M486.625,239.126v 0.468531" fill="none" stroke="black"/>
<path d="M486.011,239.594h 1.22845" fill="none" stroke="black"/>
<path d="M490.55,236.048v -0.0275166" fill="none" stroke="black"/>
<path d="M489.936,236.02h 1.22845" fill="none" stroke="black"/>
<path d="M490.55,238.505v 0.210865" fill="none" stroke="black"/>
<path d="M489.936,238.716h 1.22845" fill="none" stroke="black"/>
<path d="M497.093,239.651v -0.00846858" fill="none" stroke="black"/>
<path d="M496.479,239.643h 1.22845" fill="none" stroke="black"/>
<path d="M497.093,242.108v 0.185895" fill="none" stroke="black"/>
<path d="M496.479,242.294h 1.22845" fill="none" stroke="black"/>
<path d="M510.178,236.934v 0.0514926" fill="none" stroke="black"/>
<path d="M509.563,236.986h 1.17278" fill="none" stroke="black"/>
<g fill="#ff0000">
<circle cx="116.321" cy="280.082" r="1.22845"/>
<circle cx="121.555" cy="273.281" r="1.22845"/>
<circle cx="129.406" cy="270.931" r="1.22845"/>
<circle cx="132.023" cy="268.838" r="1.22845"/>
<circle cx="137.257" cy="273.151" r="1.22845"/>
<circle cx="142.491" cy="281.181" r="1.22845"/>
<circle cx="143.8" cy="266.264" r="1.22845"/>
<circle cx="150.342" cy="263.17" r="1.22845"/>
<circle cx="154.268" cy="260.695" r="1.22845"/>
<circle cx="158.193" cy="259.052" r="1.22845"/>
<circle cx="162.118" cy="254.635" r="1.22845"/>
<circle cx="166.044" cy="262.757" r="1.22845"/>
<circle cx="169.969" cy="247.308" r="1.22845"/>
<circle cx="172.586" cy="259.26" r="1.22845"/>
<circle cx="177.82" cy="252.095" r="1.22845"/>
<circle cx="183.054" cy="259.581" r="1.22845"/>
<circle cx="186.98" cy="255.107" r="1.22845"/>
<circle cx="189.597" cy="264.12" r="1.22845"/>
<circle cx="194.831" cy="255.458" r="1.22845"/>
<circle cx="198.756" cy="250.719" r="1.22845"/>
<circle cx="200.065" cy="255.246" r="1.22845"/>
<circle cx="206.607" cy="252.301" r="1.22845"/>
<circle cx="210.533" cy="251.745" r="1.22845"/>
<circle cx="213.15" cy="252.834" r="1.22845"/>
<circle cx="218.384" cy="245.124" r="1.22845"/>
<circle cx="221.001" cy="248.649" r="1.22845"/>
<circle cx="224.926" cy="246.701" r="1.22845"/>
<circle cx="228.852" cy="246.353" r="1.22845"/>
<circle cx="232.777" cy="249.871" r="1.22845"/>
<circle cx="236.703" cy="252.405" r="1.22845"/>
<circle cx="240.628" cy="245.8" r="1.22845"/>
<circle cx="244.554" cy="243.656" r="1.22845"/>
<circle cx="248.479" cy="244.098" r="1.22845"/>
<circle cx="252.404" cy="244.098" r="1.22845"/>
<circle cx="256.33" cy="244.802" r="1.22845"/>
<circle cx="260.255" cy="245.56" r="1.22845"/>
<circle cx="265.489" cy="245.174" r="1.22845"/>
<circle cx="268.106" cy="242.57" r="1.22845"/>
<circle cx="272.032" cy="240.831" r="1.22845"/>
<circle cx="275.957" cy="244.098" r="1.22845"/>
<circle cx="282.5" cy="244.444" r="1.22845"/>
<circle cx="283.808" cy="242.171" r="1.22845"/>
<circle cx="289.042" cy="242.687" r="1.22845"/>
<circle cx="291.659" cy="241.557" r="1.22845"/>
<circle cx="294.276" cy="239.695" r="1.22845"/>
<circle cx="298.202" cy="241.246" r="1.22845"/>
<circle cx="303.436" cy="240.216" r="1.22845"/>
<circle cx="309.978" cy="237.946" r="1.22845"/>
<circle cx="312.595" cy="238.457" r="1.22845"/>
<circle cx="320.446" cy="238.167" r="1.22845"/>
<circle cx="324.372" cy="234.871" r="1.22845"/>
<circle cx="328.297" cy="238.457" r="1.22845"/>
<circle cx="332.223" cy="236.418" r="1.22845"/>
<circle cx="336.148" cy="238.267" r="1.22845"/>
<circle cx="338.765" cy="234.351" r="1.22845"/>
<circle cx="343.999" cy="233.777" r="1.22845"/>
<circle cx="349.233" cy="236.822" r="1.22845"/>
<circle cx="351.85" cy="231.897" r="1.22845"/>
<circle cx="355.775" cy="233.011" r="1.22845"/>
<circle cx="361.009" cy="236.725" r="1.22845"/>
<circle cx="364.935" cy="234.019" r="1.22845"/>
<circle cx="367.552" cy="233.235" r="1.22845"/>
<circle cx="371.477" cy="234.607" r="1.22845"/>
<circle cx="375.403" cy="231.016" r="1.22845"/>
<circle cx="380.637" cy="234.101" r="1.22845"/>
<circle cx="383.254" cy="236.735" r="1.22845"/>
<circle cx="388.488" cy="232.579" r="1.22845"/>
<circle cx="393.722" cy="233.541" r="1.22845"/>
<circle cx="398.956" cy="234.607" r="1.22845"/>
<circle cx="402.881" cy="235.141" r="1.22845"/>
<circle cx="406.807" cy="232.579" r="1.22845"/>
<circle cx="412.041" cy="233.16" r="1.22845"/>
<circle cx="417.275" cy="232.649" r="1.22845"/>
<circle cx="422.509" cy="233.698" r="1.22845"/>
<circle cx="430.36" cy="232.369" r="1.22845"/>
<circle cx="435.594" cy="233.235" r="1.22845"/>
<circle cx="440.828" cy="231.767" r="1.22845"/>
<circle cx="446.061" cy="237.265" r="1.22845"/>
<circle cx="449.987" cy="245.8" r="1.22845"/>
<circle cx="452.604" cy="234.607" r="1.22845"/>
<circle cx="456.529" cy="235.609" r="1.22845"/>
<circle cx="461.763" cy="237.576" r="1.22845"/>
<circle cx="466.997" cy="236.141" r="1.22845"/>
<circle cx="469.614" cy="237.265" r="1.22845"/>
<circle cx="476.157" cy="236.03" r="1.22845"/>
<circle cx="478.774" cy="238.928" r="1.22845"/>
<circle cx="481.391" cy="239.537" r="1.22845"/>
<circle cx="482.699" cy="232.865" r="1.22845"/>
<circle cx="486.625" cy="237.897" r="1.22845"/>
<circle cx="490.55" cy="237.276" r="1.22845"/>
<circle cx="494.476" cy="238.821" r="1.22845"/>
<circle cx="497.093" cy="240.88" r="1.22845"/>
<circle cx="503.635" cy="235.05" r="1.22845"/>
<circle cx="503.635" cy="240.464" r="1.22845"/>
<circle cx="510.178" cy="235.706" r="1.22845"/>
</g>
<path d="M116.321,267.353l 1.96274, -1.31939l 1.96274, -1.27728l 1.96274, -1.23621l 1.96274, -1.19615l 1.96274, -1.15711l 1.96274, -1.11916l 1.96274, -1.08221l 1.96274, -1.04641l 1.96274, -1.01276l 1.96274, -0.978395l 1.96274, -0.945932l 1.96274,
 -0.914723l 1.96274, -0.884636l 1.96274, -0.855782l 1.96274, -0.827927l 1.96274, -0.8013l 1.96274, -0.775787l 1.96274, -0.751254l 1.96274, -0.727912l 1.96274, -0.705524l 1.96274, -0.684123l 1.96274, -0.663689l 1.96274, -0.644166l 1.96274, -0.625573l
 1.96274, -0.607772l 1.96274, -0.590782l 1.96274, -0.574606l 1.96274, -0.559098l 1.96274, -0.544308l 1.96274, -0.530249l 1.96274, -0.516701l 1.96274, -0.503765l 1.96274, -0.491342l 1.96274, -0.479584l 1.96274, -0.468202l 1.96274, -0.457322l 1.96274,
 -0.446849l 1.96274, -0.436826l 1.96274, -0.427144l 1.96274, -0.417847l 1.96274, -0.408902l 1.96274, -0.400271l 1.96274, -0.39196l 1.96274, -0.383858l 1.96274, -0.37642l 1.96274, -0.368654l 1.96274, -0.361309l 1.96274, -0.354107l 1.96274, -0.347523l
 1.96274, -0.340886l 1.96274, -0.334516l 1.96274, -0.328254l 1.96274, -0.322172l 1.96274, -0.316398l 1.96274, -0.310649l 1.96274, -0.305125l 1.96274, -0.299811l 1.96274, -0.294519l 1.96274, -0.289429l 1.96274, -0.28453l 1.96274, -0.279756l 1.96274,
 -0.27505l 1.96274, -0.270517l 1.96274, -0.266097l 1.96274, -0.261834l 1.96274, -0.257579l 1.96274, -0.253567l 1.96274, -0.249737l 1.96274, -0.24577l 1.96274, -0.242028l 1.96274, -0.238452l 1.96274, -0.234951l 1.96274, -0.231523l 1.96274, -0.228127l
 1.96274, -0.224917l 1.96274, -0.221844l 1.96274, -0.218717l 1.96274, -0.215758l 1.96274, -0.212853l 1.96274, -0.209965l 1.96274, -0.207331l 1.96274, -0.204606l 1.96274, -0.202056l 1.96274, -0.199544l 1.96274, -0.19707l 1.96274, -0.194725l 1.96274,
 -0.192322l 1.96274, -0.190071l 1.96274, -0.18785l 1.96274, -0.185686l 1.96274, -0.183605l 1.96274, -0.181628l 1.96274, -0.179619l 1.96274, -0.177554l 1.96274, -0.175491l 1.96274, -0.173631l 1.96274, -0.17184l 1.96274, -0.17004l 1.96274, -0.168353l
 1.96274, -0.166703l 1.96274, -0.164512l 1.96274, -0.1627l 1.96274, -0.161044l 1.96274, -0.159448l 1.96274, -0.157908l 1.96274, -0.156379l 1.96274, -0.154946l 1.96274, -0.152367l 1.96274, -0.150742l 1.96274, -0.149195l 1.96274, -0.147703l 1.96274,
 -0.146244l 1.96274, -0.144875l 1.96274, -0.14327l 1.96274, -0.14046l 1.96274, -0.138856l 1.96274, -0.137364l 1.96274, -0.135925l 1.96274, -0.134554l 1.96274, -0.133249l 1.96274, -0.131183l 1.96274, -0.128332l 1.96405, -0.126819l 1.96274, -0.125309l
 1.96274, -0.123918l 1.96274, -0.122639l 1.96274, -0.12142l 1.96274, -0.118723l 1.96274, -0.116135l 1.96274, -0.114616l 1.96274, -0.113241l 1.96274, -0.111957l 1.96274, -0.110761" fill="none" stroke="black"/>
<g fill="#0000ff">
<circle cx="116.321" cy="267.353" r="1.22845"/>
<circle cx="118.284" cy="266.034" r="1.22845"/>
<circle cx="120.247" cy="264.756" r="1.22845"/>
<circle cx="122.209" cy="263.52" r="1.22845"/>
<circle cx="124.172" cy="262.324" r="1.22845"/>
<circle cx="126.135" cy="261.167" r="1.22845"/>
<circle cx="128.098" cy="260.048" r="1.22845"/>
<circle cx="130.06" cy="258.965" r="1.22845"/>
<circle cx="132.023" cy="257.919" r="1.22845"/>
<circle cx="133.986" cy="256.906" r="1.22845"/>
<circle cx="135.949" cy="255.928" r="1.22845"/>
<circle cx="137.911" cy="254.982" r="1.22845"/>
<circle cx="139.874" cy="254.067" r="1.22845"/>
<circle cx="141.837" cy="253.183" r="1.22845"/>
<circle cx="143.8" cy="252.327" r="1.22845"/>
<circle cx="145.762" cy="251.499" r="1.22845"/>
<circle cx="147.725" cy="250.698" r="1.22845"/>
<circle cx="149.688" cy="249.922" r="1.22845"/>
<circle cx="151.651" cy="249.17" r="1.22845"/>
<circle cx="153.613" cy="248.443" r="1.22845"/>
<circle cx="155.576" cy="247.737" r="1.22845"/>
<circle cx="157.539" cy="247.053" r="1.22845"/>
<circle cx="159.501" cy="246.389" r="1.22845"/>
<circle cx="161.464" cy="245.745" r="1.22845"/>
<circle cx="163.427" cy="245.119" r="1.22845"/>
<circle cx="165.39" cy="244.512" r="1.22845"/>
<circle cx="167.352" cy="243.921" r="1.22845"/>
<circle cx="169.315" cy="243.346" r="1.22845"/>
<circle cx="171.278" cy="242.787" r="1.22845"/>
<circle cx="173.241" cy="242.243" r="1.22845"/>
<circle cx="175.203" cy="241.713" r="1.22845"/>
<circle cx="177.166" cy="241.196" r="1.22845"/>
<circle cx="179.129" cy="240.692" r="1.22845"/>
<circle cx="181.092" cy="240.201" r="1.22845"/>
<circle cx="183.054" cy="239.721" r="1.22845"/>
<circle cx="185.017" cy="239.253" r="1.22845"/>
<circle cx="186.98" cy="238.796" r="1.22845"/>
<circle cx="188.943" cy="238.349" r="1.22845"/>
<circle cx="190.905" cy="237.912" r="1.22845"/>
<circle cx="192.868" cy="237.485" r="1.22845"/>
<circle cx="194.831" cy="237.067" r="1.22845"/>
<circle cx="196.794" cy="236.658" r="1.22845"/>
<circle cx="198.756" cy="236.258" r="1.22845"/>
<circle cx="200.719" cy="235.866" r="1.22845"/>
<circle cx="202.682" cy="235.482" r="1.22845"/>
<circle cx="204.644" cy="235.106" r="1.22845"/>
<circle cx="206.607" cy="234.737" r="1.22845"/>
<circle cx="208.57" cy="234.376" r="1.22845"/>
<circle cx="210.533" cy="234.022" r="1.22845"/>
<circle cx="212.495" cy="233.674" r="1.22845"/>
<circle cx="214.458" cy="233.333" r="1.22845"/>
<circle cx="216.421" cy="232.999" r="1.22845"/>
<circle cx="218.384" cy="232.67" r="1.22845"/>
<circle cx="220.346" cy="232.348" r="1.22845"/>
<circle cx="222.309" cy="232.032" r="1.22845"/>
<circle cx="224.272" cy="231.721" r="1.22845"/>
<circle cx="226.235" cy="231.416" r="1.22845"/>
<circle cx="228.197" cy="231.116" r="1.22845"/>
<circle cx="230.16" cy="230.822" r="1.22845"/>
<circle cx="232.123" cy="230.532" r="1.22845"/>
<circle cx="234.086" cy="230.248" r="1.22845"/>
<circle cx="236.048" cy="229.968" r="1.22845"/>
<circle cx="238.011" cy="229.693" r="1.22845"/>
<circle cx="239.974" cy="229.422" r="1.22845"/>
<circle cx="241.937" cy="229.156" r="1.22845"/>
<circle cx="243.899" cy="228.895" r="1.22845"/>
<circle cx="245.862" cy="228.637" r="1.22845"/>
<circle cx="247.825" cy="228.383" r="1.22845"/>
<circle cx="249.788" cy="228.134" r="1.22845"/>
<circle cx="251.75" cy="227.888" r="1.22845"/>
<circle cx="253.713" cy="227.646" r="1.22845"/>
<circle cx="255.676" cy="227.407" r="1.22845"/>
<circle cx="257.638" cy="227.172" r="1.22845"/>
<circle cx="259.601" cy="226.941" r="1.22845"/>
<circle cx="261.564" cy="226.713" r="1.22845"/>
<circle cx="263.527" cy="226.488" r="1.22845"/>
<circle cx="265.489" cy="226.266" r="1.22845"/>
<circle cx="267.452" cy="226.047" r="1.22845"/>
<circle cx="269.415" cy="225.832" r="1.22845"/>
<circle cx="271.378" cy="225.619" r="1.22845"/>
<circle cx="273.34" cy="225.409" r="1.22845"/>
<circle cx="275.303" cy="225.201" r="1.22845"/>
<circle cx="277.266" cy="224.997" r="1.22845"/>
<circle cx="279.229" cy="224.795" r="1.22845"/>
<circle cx="281.191" cy="224.595" r="1.22845"/>
<circle cx="283.154" cy="224.398" r="1.22845"/>
<circle cx="285.117" cy="224.203" r="1.22845"/>
<circle cx="287.08" cy="224.011" r="1.22845"/>
<circle cx="289.042" cy="223.821" r="1.22845"/>
<circle cx="291.005" cy="223.633" r="1.22845"/>
<circle cx="292.968" cy="223.447" r="1.22845"/>
<circle cx="294.931" cy="223.264" r="1.22845"/>
<circle cx="296.893" cy="223.082" r="1.22845"/>
<circle cx="298.856" cy="222.903" r="1.22845"/>
<circle cx="300.819" cy="222.725" r="1.22845"/>
<circle cx="302.781" cy="222.55" r="1.22845"/>
<circle cx="304.744" cy="222.376" r="1.22845"/>
<circle cx="306.707" cy="222.204" r="1.22845"/>
<circle cx="308.67" cy="222.034" r="1.22845"/>
<circle cx="310.632" cy="221.866" r="1.22845"/>
<circle cx="312.595" cy="221.699" r="1.22845"/>
<circle cx="314.558" cy="221.535" r="1.22845"/>
<circle cx="316.521" cy="221.372" r="1.22845"/>
<circle cx="318.483" cy="221.211" r="1.22845"/>
<circle cx="320.446" cy="221.051" r="1.22845"/>
<circle cx="322.409" cy="220.893" r="1.22845"/>
<circle cx="324.372" cy="220.737" r="1.22845"/>
<circle cx="326.334" cy="220.582" r="1.22845"/>
<circle cx="328.297" cy="220.43" r="1.22845"/>
<circle cx="330.26" cy="220.279" r="1.22845"/>
<circle cx="332.223" cy="220.13" r="1.22845"/>
<circle cx="334.185" cy="219.982" r="1.22845"/>
<circle cx="336.148" cy="219.836" r="1.22845"/>
<circle cx="338.111" cy="219.691" r="1.22845"/>
<circle cx="340.074" cy="219.548" r="1.22845"/>
<circle cx="342.036" cy="219.407" r="1.22845"/>
<circle cx="343.999" cy="219.268" r="1.22845"/>
<circle cx="345.962" cy="219.131" r="1.22845"/>
<circle cx="347.924" cy="218.995" r="1.22845"/>
<circle cx="349.887" cy="218.861" r="1.22845"/>
<circle cx="351.85" cy="218.727" r="1.22845"/>
<circle cx="353.813" cy="218.596" r="1.22845"/>
<circle cx="355.775" cy="218.468" r="1.22845"/>
<circle cx="357.74" cy="218.341" r="1.22845"/>
<circle cx="359.702" cy="218.216" r="1.22845"/>
<circle cx="361.665" cy="218.092" r="1.22845"/>
<circle cx="363.628" cy="217.969" r="1.22845"/>
<circle cx="365.59" cy="217.848" r="1.22845"/>
<circle cx="367.553" cy="217.729" r="1.22845"/>
<circle cx="369.516" cy="217.613" r="1.22845"/>
<circle cx="371.479" cy="217.498" r="1.22845"/>
<circle cx="373.441" cy="217.385" r="1.22845"/>
<circle cx="375.404" cy="217.273" r="1.22845"/>
<circle cx="377.367" cy="217.162" r="1.22845"/>
</g>
<rect x="454.043" y="31.264" width="56.6929" height="31.264" fill="white"/>
<path d="M454.043,62.528h 56.6929" fill="none" stroke="black"/>
<path d="M510.736,62.528v -31.264" fill="none" stroke="black"/>
<path d="M510.736,31.264h -56.6929" fill="none" stroke="black"/>
<path d="M454.043,31.264v 31.264" fill="none" stroke="black"/>
<text xml:space="preserve" x="467.925" y="40.2317" fill="black" font-size="3.64742" font-family="Helvetica">EXFOR Data</text>
<g fill="#ff0000">
<circle cx="461.13" cy="39.08" r="1.22845"/>
</g>
<text xml:space="preserve" x="467.925" y="55.8944" fill="black" font-size="3.64742" font-family="Helvetica">TALYS Cross-section</text>
<path d="M456.169,54.712h 9.92126" fill="none" stroke="black"/>
<g fill="#0000ff">
<circle cx="461.13" cy="54.712" r="1.22845"/>
</g>
<text xml:space="preserve" x="155.899" y="15.0485" fill="black" font-size="15.3232" font-family="Helvetica">Energy (MeV) versus cross-section (b)</text></svg>
