<?xml version="1.0" standalone="no"?>
<svg width="567.429" height="313.14" viewBox="0 0 567.429 313.14" xmlns="http://www.w3.org/2000/svg" shape-rendering="crispEdges">
<title>
/home/rooitier/Documents/masters/plots/levels/v/plot_v_ld4.svg
</title>
<desc>
Creator: ROOT Version 6.24/06
CreationDate: Tue Sep 28 12:55:35 2021</desc>
<defs>
</defs>
<rect x="0.5" y="0" width="566.929" height="312.64" fill="white"/>
<rect x="57.1929" y="31.264" width="453.543" height="250.112" fill="white"/>
<rect x="57.1929" y="31.264" width="453.543" height="250.112" fill="none" stroke="black"/>
<rect x="57.1929" y="31.264" width="453.543" height="250.112" fill="white"/>
<rect x="57.1929" y="31.264" width="453.543" height="250.112" fill="none" stroke="black"/>
<path d="M57.1929,281.376h 453.543" fill="none" stroke="black"/>
<path d="M59.1178,273.873v 7.50337" fill="none" stroke="black"/>
<path d="M81.5657,277.625v 3.75168" fill="none" stroke="black"/>
<path d="M104.014,277.625v 3.75168" fill="none" stroke="black"/>
<path d="M126.462,277.625v 3.75168" fill="none" stroke="black"/>
<path d="M148.909,277.625v 3.75168" fill="none" stroke="black"/>
<path d="M171.357,273.873v 7.50337" fill="none" stroke="black"/>
<path d="M193.805,277.625v 3.75168" fill="none" stroke="black"/>
<path d="M216.253,277.625v 3.75168" fill="none" stroke="black"/>
<path d="M238.701,277.625v 3.75168" fill="none" stroke="black"/>
<path d="M261.149,277.625v 3.75168" fill="none" stroke="black"/>
<path d="M283.597,273.873v 7.50337" fill="none" stroke="black"/>
<path d="M306.045,277.625v 3.75168" fill="none" stroke="black"/>
<path d="M328.493,277.625v 3.75168" fill="none" stroke="black"/>
<path d="M350.941,277.625v 3.75168" fill="none" stroke="black"/>
<path d="M373.389,277.625v 3.75168" fill="none" stroke="black"/>
<path d="M395.837,273.873v 7.50337" fill="none" stroke="black"/>
<path d="M418.284,277.625v 3.75168" fill="none" stroke="black"/>
<path d="M440.732,277.625v 3.75168" fill="none" stroke="black"/>
<path d="M463.18,277.625v 3.75168" fill="none" stroke="black"/>
<path d="M485.628,277.625v 3.75168" fill="none" stroke="black"/>
<path d="M508.076,273.873v 7.50337" fill="none" stroke="black"/>
<path d="M59.1178,273.873v 7.50337" fill="none" stroke="black"/>
<path d="M508.076,273.873v 7.50337" fill="none" stroke="black"/>
<text xml:space="preserve" x="56.0873" y="291.449" fill="black" font-size="10.5389" font-family="Helvetica">0</text>
<text xml:space="preserve" x="168.49" y="291.449" fill="black" font-size="10.5389" font-family="Helvetica">5</text>
<text xml:space="preserve" x="277.822" y="291.449" fill="black" font-size="10.5389" font-family="Helvetica">10</text>
<text xml:space="preserve" x="390.225" y="291.449" fill="black" font-size="10.5389" font-family="Helvetica">15</text>
<text xml:space="preserve" x="502.321" y="291.449" fill="black" font-size="10.5389" font-family="Helvetica">20</text>
<text xml:space="preserve" x="448.577" y="301.584" fill="black" font-size="10.5389" font-family="Helvetica">Energy (MeV)</text>
<path d="M57.1929,281.376v -250.112" fill="none" stroke="black"/>
<path d="M70.7992,281.376h -13.6063" fill="none" stroke="black"/>
<text xml:space="preserve" x="49.0237" y="281.315" fill="black" font-size="7.1926" font-family="Helvetica">3</text>
<text xml:space="preserve" x="45.3384" y="281.315" fill="black" font-size="7.1926" font-family="Times">&#8722;</text>
<text xml:space="preserve" x="34.2823" y="285.921" fill="black" font-size="10.5389" font-family="Helvetica">10</text>
<path d="M63.9961,273.01h -6.80315" fill="none" stroke="black"/>
<path d="M63.9961,268.117h -6.80315" fill="none" stroke="black"/>
<path d="M63.9961,264.645h -6.80315" fill="none" stroke="black"/>
<path d="M63.9961,261.952h -6.80315" fill="none" stroke="black"/>
<path d="M63.9961,259.751h -6.80315" fill="none" stroke="black"/>
<path d="M63.9961,257.891h -6.80315" fill="none" stroke="black"/>
<path d="M63.9961,256.279h -6.80315" fill="none" stroke="black"/>
<path d="M63.9961,254.858h -6.80315" fill="none" stroke="black"/>
<path d="M70.7992,253.586h -13.6063" fill="none" stroke="black"/>
<text xml:space="preserve" x="49.0237" y="253.675" fill="black" font-size="7.1926" font-family="Helvetica">2</text>
<text xml:space="preserve" x="45.3384" y="253.675" fill="black" font-size="7.1926" font-family="Times">&#8722;</text>
<text xml:space="preserve" x="34.2823" y="257.974" fill="black" font-size="10.5389" font-family="Helvetica">10</text>
<path d="M63.9961,245.22h -6.80315" fill="none" stroke="black"/>
<path d="M63.9961,240.327h -6.80315" fill="none" stroke="black"/>
<path d="M63.9961,236.855h -6.80315" fill="none" stroke="black"/>
<path d="M63.9961,234.161h -6.80315" fill="none" stroke="black"/>
<path d="M63.9961,231.961h -6.80315" fill="none" stroke="black"/>
<path d="M63.9961,230.1h -6.80315" fill="none" stroke="black"/>
<path d="M63.9961,228.489h -6.80315" fill="none" stroke="black"/>
<path d="M63.9961,227.067h -6.80315" fill="none" stroke="black"/>
<path d="M70.7992,225.796h -13.6063" fill="none" stroke="black"/>
<text xml:space="preserve" x="50.2522" y="226.035" fill="black" font-size="7.1926" font-family="Helvetica">1</text>
<text xml:space="preserve" x="46.5668" y="226.035" fill="black" font-size="7.1926" font-family="Times">&#8722;</text>
<text xml:space="preserve" x="35.5108" y="230.334" fill="black" font-size="10.5389" font-family="Helvetica">10</text>
<path d="M63.9961,217.43h -6.80315" fill="none" stroke="black"/>
<path d="M63.9961,212.536h -6.80315" fill="none" stroke="black"/>
<path d="M63.9961,209.064h -6.80315" fill="none" stroke="black"/>
<path d="M63.9961,206.371h -6.80315" fill="none" stroke="black"/>
<path d="M63.9961,204.171h -6.80315" fill="none" stroke="black"/>
<path d="M63.9961,202.31h -6.80315" fill="none" stroke="black"/>
<path d="M63.9961,200.699h -6.80315" fill="none" stroke="black"/>
<path d="M63.9961,199.277h -6.80315" fill="none" stroke="black"/>
<path d="M70.7992,198.005h -13.6063" fill="none" stroke="black"/>
<text xml:space="preserve" x="49.0237" y="201.773" fill="black" font-size="10.5389" font-family="Helvetica">1</text>
<path d="M63.9961,189.64h -6.80315" fill="none" stroke="black"/>
<path d="M63.9961,184.746h -6.80315" fill="none" stroke="black"/>
<path d="M63.9961,181.274h -6.80315" fill="none" stroke="black"/>
<path d="M63.9961,178.581h -6.80315" fill="none" stroke="black"/>
<path d="M63.9961,176.38h -6.80315" fill="none" stroke="black"/>
<path d="M63.9961,174.52h -6.80315" fill="none" stroke="black"/>
<path d="M63.9961,172.908h -6.80315" fill="none" stroke="black"/>
<path d="M63.9961,171.487h -6.80315" fill="none" stroke="black"/>
<path d="M70.7992,170.215h -13.6063" fill="none" stroke="black"/>
<text xml:space="preserve" x="41.653" y="173.826" fill="black" font-size="10.5389" font-family="Helvetica">10</text>
<path d="M63.9961,161.85h -6.80315" fill="none" stroke="black"/>
<path d="M63.9961,156.956h -6.80315" fill="none" stroke="black"/>
<path d="M63.9961,153.484h -6.80315" fill="none" stroke="black"/>
<path d="M63.9961,150.791h -6.80315" fill="none" stroke="black"/>
<path d="M63.9961,148.59h -6.80315" fill="none" stroke="black"/>
<path d="M63.9961,146.73h -6.80315" fill="none" stroke="black"/>
<path d="M63.9961,145.118h -6.80315" fill="none" stroke="black"/>
<path d="M63.9961,143.697h -6.80315" fill="none" stroke="black"/>
<path d="M70.7992,142.425h -13.6063" fill="none" stroke="black"/>
<text xml:space="preserve" x="49.0237" y="142.5" fill="black" font-size="7.1926" font-family="Helvetica">2</text>
<text xml:space="preserve" x="37.9677" y="146.8" fill="black" font-size="10.5389" font-family="Helvetica">10</text>
<path d="M63.9961,134.059h -6.80315" fill="none" stroke="black"/>
<path d="M63.9961,129.166h -6.80315" fill="none" stroke="black"/>
<path d="M63.9961,125.694h -6.80315" fill="none" stroke="black"/>
<path d="M63.9961,123h -6.80315" fill="none" stroke="black"/>
<path d="M63.9961,120.8h -6.80315" fill="none" stroke="black"/>
<path d="M63.9961,118.939h -6.80315" fill="none" stroke="black"/>
<path d="M63.9961,117.328h -6.80315" fill="none" stroke="black"/>
<path d="M63.9961,115.906h -6.80315" fill="none" stroke="black"/>
<path d="M70.7992,114.635h -13.6063" fill="none" stroke="black"/>
<text xml:space="preserve" x="49.0237" y="114.553" fill="black" font-size="7.1926" font-family="Helvetica">3</text>
<text xml:space="preserve" x="37.9677" y="119.16" fill="black" font-size="10.5389" font-family="Helvetica">10</text>
<path d="M63.9961,106.269h -6.80315" fill="none" stroke="black"/>
<path d="M63.9961,101.375h -6.80315" fill="none" stroke="black"/>
<path d="M63.9961,97.9033h -6.80315" fill="none" stroke="black"/>
<path d="M63.9961,95.2102h -6.80315" fill="none" stroke="black"/>
<path d="M63.9961,93.0097h -6.80315" fill="none" stroke="black"/>
<path d="M63.9961,91.1493h -6.80315" fill="none" stroke="black"/>
<path d="M63.9961,89.5377h -6.80315" fill="none" stroke="black"/>
<path d="M63.9961,88.1161h -6.80315" fill="none" stroke="black"/>
<path d="M70.7992,86.8445h -13.6063" fill="none" stroke="black"/>
<text xml:space="preserve" x="49.0237" y="86.9128" fill="black" font-size="7.1926" font-family="Helvetica">4</text>
<text xml:space="preserve" x="37.9677" y="91.2123" fill="black" font-size="10.5389" font-family="Helvetica">10</text>
<path d="M63.9961,78.4788h -6.80315" fill="none" stroke="black"/>
<path d="M63.9961,73.5852h -6.80315" fill="none" stroke="black"/>
<path d="M63.9961,70.1131h -6.80315" fill="none" stroke="black"/>
<path d="M63.9961,67.42h -6.80315" fill="none" stroke="black"/>
<path d="M63.9961,65.2195h -6.80315" fill="none" stroke="black"/>
<path d="M63.9961,63.359h -6.80315" fill="none" stroke="black"/>
<path d="M63.9961,61.7474h -6.80315" fill="none" stroke="black"/>
<path d="M63.9961,60.3259h -6.80315" fill="none" stroke="black"/>
<path d="M70.7992,59.0543h -13.6063" fill="none" stroke="black"/>
<text xml:space="preserve" x="49.0237" y="58.9655" fill="black" font-size="7.1926" font-family="Helvetica">5</text>
<text xml:space="preserve" x="37.9677" y="63.5722" fill="black" font-size="10.5389" font-family="Helvetica">10</text>
<path d="M63.9961,50.6886h -6.80315" fill="none" stroke="black"/>
<path d="M63.9961,45.7949h -6.80315" fill="none" stroke="black"/>
<path d="M63.9961,42.3229h -6.80315" fill="none" stroke="black"/>
<path d="M63.9961,39.6297h -6.80315" fill="none" stroke="black"/>
<path d="M63.9961,37.4293h -6.80315" fill="none" stroke="black"/>
<path d="M63.9961,35.5688h -6.80315" fill="none" stroke="black"/>
<path d="M63.9961,33.9572h -6.80315" fill="none" stroke="black"/>
<path d="M63.9961,32.5356h -6.80315" fill="none" stroke="black"/>
<path d="M70.7992,31.264h -13.6063" fill="none" stroke="black"/>
<text xml:space="preserve" x="49.0237" y="31.0183" fill="black" font-size="7.1926" font-family="Helvetica">6</text>
<text xml:space="preserve" x="37.9677" y="35.625" fill="black" font-size="10.5389" font-family="Helvetica">10</text>
<g transform="rotate(-90,21.6907,182.425)">
<text xml:space="preserve" x="21.6907" y="182.425" fill="black" font-size="10.5389" font-family="Helvetica">No. of nuclear level density states</text>
</g>
<path d="M70.3418,189.64l 22.4479, 8.3657l 22.4479, -13.2593l 22.4479, -21.625l 22.4479, -11.5837l 22.4479, -4.63406l 22.4479, -0.344856l 22.4479, 18.7631" fill="none" stroke="#ff0000"/>
<g fill="#ff0000">
<circle cx="70.3418" cy="189.64" r="1.22845"/>
<circle cx="92.7897" cy="198.005" r="1.22845"/>
<circle cx="115.238" cy="184.746" r="1.22845"/>
<circle cx="137.686" cy="163.121" r="1.22845"/>
<circle cx="160.133" cy="151.537" r="1.22845"/>
<circle cx="182.581" cy="146.903" r="1.22845"/>
<circle cx="205.029" cy="146.559" r="1.22845"/>
<circle cx="227.477" cy="165.322" r="1.22845"/>
</g>
<path d="M66.6509,281.376l 3.69087, -60.0649" fill="none" stroke="black"/>
<path d="M70.3418,221.311l 5.61198, -9.32534l 5.61198, -5.22222l 5.61198, -3.65152l 5.61198, -3.76785l 5.61198, -3.98363l 5.61198, -3.65249l 5.61198, -3.67627l 5.61198, -3.64253l 5.61198, -9.34075l 5.61198, -2.51166l 5.61198, -2.44186l 5.61198,
 -2.47612l 5.61198, -2.45727l 5.61198, -2.43635l 5.61198, -2.40421l 5.61198, -2.33704l 5.61198, -2.32396l 5.61198, -2.2815l 11.224, -4.48291l 11.224, -4.29444l 11.224, -4.12272l 11.224, -4.06093l 11.224, -3.96623l 11.224, -3.85546l 11.224, -3.7612l
 11.224, -3.72925l 11.224, -3.5492l 11.224, -3.51045l 22.4479, -6.90097l 22.4479, -6.62361l 22.4479, -6.46142l 22.4479, -6.20904l 22.4479, -6.05982l 22.4479, -5.88407l 22.4479, -5.77875l 22.4479, -5.59298l 22.4479, -5.54116l 22.4479, -5.42228"
 fill="none" stroke="black"/>
<g fill="#0000ff">
<circle cx="70.3418" cy="221.311" r="1.22845"/>
<circle cx="75.9538" cy="211.986" r="1.22845"/>
<circle cx="81.5657" cy="206.764" r="1.22845"/>
<circle cx="87.1777" cy="203.112" r="1.22845"/>
<circle cx="92.7897" cy="199.344" r="1.22845"/>
<circle cx="98.4017" cy="195.361" r="1.22845"/>
<circle cx="104.014" cy="191.708" r="1.22845"/>
<circle cx="109.626" cy="188.032" r="1.22845"/>
<circle cx="115.238" cy="184.389" r="1.22845"/>
<circle cx="120.85" cy="175.049" r="1.22845"/>
<circle cx="126.462" cy="172.537" r="1.22845"/>
<circle cx="132.074" cy="170.095" r="1.22845"/>
<circle cx="137.686" cy="167.619" r="1.22845"/>
<circle cx="143.298" cy="165.162" r="1.22845"/>
<circle cx="148.909" cy="162.725" r="1.22845"/>
<circle cx="154.521" cy="160.321" r="1.22845"/>
<circle cx="160.133" cy="157.984" r="1.22845"/>
<circle cx="165.745" cy="155.66" r="1.22845"/>
<circle cx="171.357" cy="153.379" r="1.22845"/>
<circle cx="182.581" cy="148.896" r="1.22845"/>
<circle cx="193.805" cy="144.601" r="1.22845"/>
<circle cx="205.029" cy="140.479" r="1.22845"/>
<circle cx="216.253" cy="136.418" r="1.22845"/>
<circle cx="227.477" cy="132.451" r="1.22845"/>
<circle cx="238.701" cy="128.596" r="1.22845"/>
<circle cx="249.925" cy="124.835" r="1.22845"/>
<circle cx="261.149" cy="121.106" r="1.22845"/>
<circle cx="272.373" cy="117.556" r="1.22845"/>
<circle cx="283.597" cy="114.046" r="1.22845"/>
<circle cx="306.045" cy="107.145" r="1.22845"/>
<circle cx="328.493" cy="100.521" r="1.22845"/>
<circle cx="350.941" cy="94.0599" r="1.22845"/>
<circle cx="373.389" cy="87.8509" r="1.22845"/>
<circle cx="395.837" cy="81.791" r="1.22845"/>
<circle cx="418.284" cy="75.907" r="1.22845"/>
<circle cx="440.732" cy="70.1282" r="1.22845"/>
<circle cx="463.18" cy="64.5352" r="1.22845"/>
<circle cx="485.628" cy="58.9941" r="1.22845"/>
<circle cx="508.076" cy="53.5718" r="1.22845"/>
</g>
<text xml:space="preserve" x="102.461" y="15.0485" fill="black" font-size="15.1242" font-family="Helvetica">Energy (MeV) versus No. of nuclear level density states</text></svg>
